<svg width="53" height="34" viewBox="0 0 53 34" fill="none" xmlns="http://www.w3.org/2000/svg">
<path d="M52.5354 33.2781C52.544 33.2977 52.5419 33.3194 52.5311 33.3346V33.3368C52.5224 33.3542 52.5029 33.365 52.4835 33.365H30.0505C30.0288 33.365 30.005 33.3498 29.9964 33.3303L29.9921 33.3259C28.9251 31.3101 27.9001 28.1643 27.012 26.0663L29.6936 20.1043C29.7131 20.0608 29.7823 20.0586 29.8018 20.1043L30.0721 20.691C30.0764 20.6932 30.0807 20.7019 30.0807 20.7019L33.5345 28.2211H44.313L34.6093 7.11736L29.8039 17.5638C29.7845 17.6116 29.7153 17.6073 29.6958 17.5638L26.8173 11.2855C26.8108 11.2703 26.8108 11.2486 26.8173 11.2355L31.6789 0.67171C31.6876 0.649978 31.7114 0.634766 31.733 0.634766H37.4856C37.5072 0.634766 37.5289 0.652151 37.5397 0.67171L52.5354 33.2781Z" fill="url(#paint0_linear_2306_2201)"/>
<path d="M22.7321 20.1043C22.7516 20.0608 22.8186 20.0608 22.8381 20.1043L25.5673 26.0663L22.5656 33.3303C22.5569 33.3476 22.5331 33.365 22.5115 33.365H0.0590341C0.017944 33.365 -0.0123346 33.3172 0.00496649 33.2781L15.0007 0.67171C15.0115 0.649978 15.0331 0.634766 15.0547 0.634766H20.8247C20.8463 0.634766 20.8701 0.652151 20.8787 0.67171L29.2092 18.8112C29.2135 18.8265 29.2135 18.846 29.2092 18.8612L26.3307 25.12C26.3091 25.1656 26.2464 25.1656 26.2226 25.12L17.9267 7.11954L8.22298 28.2233H19.0016L22.7321 20.1043Z" fill="url(#paint1_linear_2306_2201)"/>
<defs>
<linearGradient id="paint0_linear_2306_2201" x1="-1.89748" y1="-1.37841" x2="50.1034" y2="57.9079" gradientUnits="userSpaceOnUse">
<stop stop-color="#C9AA69"/>
<stop offset="1" stop-color="#F0DAAD"/>
</linearGradient>
<linearGradient id="paint1_linear_2306_2201" x1="-1.89748" y1="-1.37841" x2="50.1034" y2="57.9079" gradientUnits="userSpaceOnUse">
<stop stop-color="#C9AA69"/>
<stop offset="1" stop-color="#F0DAAD"/>
</linearGradient>
</defs>
</svg>
