<svg width="147" height="20" viewBox="0 0 147 20" fill="none" xmlns="http://www.w3.org/2000/svg">
<path d="M32.2574 19.9821C32.2634 19.9717 32.2649 19.9583 32.2604 19.9479L23.0516 0.0223297C23.0457 0.0104205 23.0308 0 23.0189 0H19.4863C19.4729 0 19.4595 0.00893189 19.4536 0.0223297L16.4688 6.47711C16.4644 6.48604 16.4644 6.49795 16.4688 6.50688L18.2359 10.3431C18.2478 10.3699 18.2894 10.3714 18.3014 10.3431L21.2533 3.95981L27.2124 16.856H20.5939L18.4725 12.2605C18.4725 12.2605 18.4696 12.256 18.4681 12.2546L18.3028 11.8958C18.2909 11.8675 18.2492 11.869 18.2373 11.8958L16.1383 16.4391L14.0274 11.8958C14.0155 11.869 13.9738 11.869 13.9619 11.8958L11.6709 16.856H5.05238L11.0099 3.95981L16.1041 14.9594C16.1175 14.9877 16.1562 14.9877 16.1696 14.9594L17.9366 11.1351C17.9396 11.1262 17.9396 11.1143 17.9366 11.1038L12.8216 0.0223297C12.8157 0.0104205 12.8023 0 12.7874 0H9.24441C9.23101 0 9.21762 0.00893189 9.21166 0.0223297L0.0028787 19.9464C-0.00754184 19.9702 0.0118106 19.9985 0.0371176 19.9985H13.8235C13.8369 19.9985 13.8503 19.9881 13.8562 19.9762L15.6992 15.9806L16.1041 16.8589C16.1175 16.8872 16.1592 16.8857 16.1696 16.8589L16.5745 15.9806L16.9169 16.7205C16.9169 16.7205 16.9169 16.7309 16.9199 16.7369L18.416 19.9747L18.419 19.9777C18.4249 19.9896 18.4383 20 18.4517 20H32.2277C32.2396 20 32.2515 19.9926 32.2574 19.9821Z" fill="url(#paint0_linear_2278_2344)"/>
<path d="M40.4243 4.22168H47.5118V5.80411H44.7459V15.8123H43.1813V5.8056H40.4243V4.22317V4.22168Z" fill="black"/>
<path d="M52.8589 4.22168H54.4413V8.68018H59.9821V4.22168H61.5466V15.8123H59.9821V10.2448H54.4413V15.8123H52.8589V4.22168Z" fill="black"/>
<path d="M66.8967 4.22168H73.3202V5.80411H68.4613V8.69805H73.3202V10.2626H68.4613V14.2477H73.3202V15.8123H66.8967V4.22168Z" fill="black"/>
<path d="M95.4952 3.7395L98.6661 15.8124H97.1149L95.196 8.43619L91.8927 16.259L88.579 8.37218L86.6333 15.8139H85.0911L88.2619 3.74099L91.8912 12.3796L95.4952 3.74099V3.7395Z" fill="black"/>
<path d="M103.899 4.24121H105.481V11.3644C105.481 12.4198 105.734 13.2356 106.24 13.8117C106.747 14.3878 107.464 14.6766 108.391 14.6766C109.319 14.6766 110.031 14.4117 110.543 13.8802C111.055 13.3503 111.311 12.6015 111.311 11.6368V4.24121H112.893V11.5281C112.893 12.9468 112.488 14.0812 111.678 14.9312C110.869 15.7797 109.791 16.2055 108.444 16.2055C107.096 16.2055 105.965 15.7753 105.136 14.9133C104.308 14.0514 103.894 12.7816 103.894 11.1009V4.24121H103.899Z" fill="black"/>
<path d="M118.128 4.42725H119.693V14.4533H123.468V16.0179H118.127V4.42725H118.128Z" fill="black"/>
<path d="M128.701 4.22168H130.265V15.8123H128.701V4.22168Z" fill="black"/>
<path d="M140.926 3.77661L146.398 15.8138H144.74L143.394 12.8484H138.476L137.146 15.8138H135.5L140.927 3.77661H140.926ZM140.921 7.39403L139.067 11.528H142.794L140.92 7.39403H140.921Z" fill="black"/>
<defs>
<linearGradient id="paint0_linear_2278_2344" x1="-1.16516" y1="-1.23016" x2="30.5896" y2="35.1513" gradientUnits="userSpaceOnUse">
<stop stop-color="#C9AA69"/>
<stop offset="1" stop-color="#F0DAAD"/>
</linearGradient>
</defs>
</svg>
