<svg width="152" height="20" viewBox="0 0 152 20" fill="none" xmlns="http://www.w3.org/2000/svg">
<path d="M32.2574 19.9821C32.2634 19.9717 32.2649 19.9583 32.2604 19.9479L23.0531 0.0238235C23.0472 0.0119143 23.0323 0.0014901 23.0204 0.0014901H19.4878C19.4744 0.0014901 19.461 0.0104256 19.4551 0.0238235L16.4703 6.4786C16.4658 6.48753 16.4658 6.49944 16.4703 6.50838L18.2373 10.3446C18.2492 10.3714 18.2909 10.3729 18.3028 10.3446L21.2548 3.96129L27.2139 16.8575H20.5954L18.474 12.262C18.474 12.262 18.4711 12.2575 18.4696 12.256L18.3043 11.8973C18.2924 11.869 18.2507 11.8705 18.2388 11.8973L16.1398 16.4406L14.0289 11.8973C14.017 11.8705 13.9753 11.8705 13.9634 11.8973L11.6724 16.8575H5.05386L11.0129 3.96129L16.1071 14.9609C16.1205 14.9892 16.1592 14.9892 16.1726 14.9609L17.9396 11.1366C17.9426 11.1276 17.9426 11.1157 17.9396 11.1053L12.8231 0.0223334C12.8172 0.0104242 12.8038 0 12.7889 0H9.2459C9.2325 0 9.2191 0.00893553 9.21315 0.0223334L0.0028787 19.9464C-0.00754184 19.9702 0.0118106 19.9985 0.0371176 19.9985H13.8235C13.8369 19.9985 13.8503 19.9881 13.8562 19.9762L15.6992 15.9806L16.1041 16.8589C16.1175 16.8872 16.1592 16.8857 16.1696 16.8589L16.5745 15.9806L16.9169 16.7205C16.9169 16.7205 16.9169 16.7309 16.9199 16.7369L18.416 19.9747L18.419 19.9777C18.4249 19.9896 18.4383 20 18.4517 20H32.2277C32.2396 20 32.2515 19.9926 32.2574 19.9821Z" fill="url(#paint0_linear_2278_2469)"/>
<path d="M40.4243 4.44043H47.4924V6.01988H44.734V16.0013H43.1739V6.01988H40.4243V4.44043Z" fill="black"/>
<path d="M52.8752 4.44043H54.4547V8.88702H59.9806V4.44043H61.5407V15.9998H59.9806V10.4471H54.4547V15.9998H52.8752V4.44043Z" fill="black"/>
<path d="M66.9233 4.44043H73.329V6.01988H68.4834V8.90489H73.329V10.465H68.4834V14.4397H73.329V15.9998H66.9233V4.44043Z" fill="black"/>
<path d="M92.6402 5.72974L91.3615 6.75542C91.0221 6.4041 90.7169 6.14358 90.4415 5.9709C90.1676 5.79822 89.7701 5.71188 89.2506 5.71188C88.6834 5.71188 88.2234 5.8399 87.8691 6.09595C87.5163 6.35349 87.3392 6.68248 87.3392 7.0859C87.3392 7.43723 87.494 7.74537 87.8021 8.01333C88.1103 8.28277 88.6358 8.57604 89.3786 8.89461C90.1214 9.21318 90.7005 9.50943 91.1129 9.78482C91.5267 10.0602 91.8661 10.3639 92.1326 10.6974C92.3991 11.0308 92.5956 11.3806 92.7251 11.7483C92.8546 12.1175 92.9201 12.5076 92.9201 12.9184C92.9201 13.8786 92.5703 14.6989 91.8721 15.3762C91.1739 16.052 90.3284 16.3914 89.3354 16.3914C88.3425 16.3914 87.5133 16.1265 86.772 15.598C86.0306 15.0695 85.4605 14.2746 85.0615 13.2162L86.641 12.7711C87.2156 14.0721 88.0954 14.7227 89.2818 14.7227C89.8565 14.7227 90.3343 14.55 90.7154 14.2076C91.0965 13.8637 91.287 13.4305 91.287 12.905C91.287 12.5909 91.1873 12.2753 90.9878 11.9597C90.7884 11.6427 90.5383 11.3821 90.242 11.1767C89.9458 10.9728 89.4739 10.7361 88.8263 10.4711C88.1788 10.2061 87.6815 9.96346 87.3317 9.74165C86.9819 9.51984 86.6797 9.25784 86.4251 8.95416C86.1691 8.64898 85.983 8.3453 85.8639 8.04161C85.7463 7.73942 85.6867 7.41489 85.6867 7.0725C85.6867 6.24332 86.0187 5.53771 86.6841 4.95565C87.3496 4.3721 88.1564 4.08032 89.1062 4.08032C89.7359 4.08032 90.373 4.21579 91.0206 4.48821C91.6681 4.76063 92.2055 5.17447 92.6358 5.73123L92.6402 5.72974Z" fill="black"/>
<path d="M98.3042 4.45877H99.8837V11.5641C99.8837 12.6166 100.137 13.4309 100.641 14.0055C101.146 14.5801 101.862 14.8674 102.788 14.8674C103.714 14.8674 104.423 14.6024 104.935 14.074C105.445 13.544 105.701 12.7997 105.701 11.8365V4.45877H107.281V11.7263C107.281 13.1421 106.877 14.2734 106.069 15.1205C105.261 15.9675 104.186 16.3903 102.843 16.3903C101.5 16.3903 100.37 15.9601 99.5442 15.1011C98.718 14.2422 98.3057 12.9753 98.3057 11.2991V4.45728L98.3042 4.45877Z" fill="black"/>
<path d="M112.661 4.44043H114.221V15.9998H112.661V4.44043Z" fill="black"/>
<path d="M119.604 4.44043H126.672V6.01988H123.914V16.0013H122.354V6.01988H119.604V4.44043Z" fill="black"/>
<path d="M132.054 4.44043H138.459V6.01988H133.614V8.90489H138.459V10.465H133.614V14.4397H138.459V15.9998H132.054V4.44043Z" fill="black"/>
<path d="M151.42 5.72974L150.141 6.75542C149.801 6.4041 149.496 6.14358 149.221 5.9709C148.947 5.79822 148.549 5.71188 148.03 5.71188C147.463 5.71188 147.003 5.8399 146.648 6.09595C146.296 6.35349 146.118 6.68248 146.118 7.0859C146.118 7.43723 146.273 7.74537 146.581 8.01333C146.89 8.28277 147.415 8.57604 148.158 8.89461C148.901 9.21318 149.48 9.50943 149.892 9.78482C150.306 10.0602 150.645 10.3639 150.912 10.6974C151.178 11.0293 151.375 11.3806 151.504 11.7483C151.634 12.1175 151.699 12.5076 151.699 12.9184C151.699 13.8786 151.35 14.6989 150.651 15.3762C149.953 16.052 149.108 16.3914 148.115 16.3914C147.122 16.3914 146.293 16.1265 145.551 15.598C144.81 15.068 144.24 14.2746 143.841 13.2162L145.42 12.7711C145.995 14.0721 146.875 14.7227 148.061 14.7227C148.636 14.7227 149.114 14.55 149.495 14.2076C149.876 13.8637 150.066 13.4305 150.066 12.905C150.066 12.5909 149.967 12.2753 149.767 11.9597C149.568 11.6427 149.318 11.3821 149.021 11.1767C148.725 10.9728 148.253 10.7361 147.606 10.4711C146.958 10.2061 146.461 9.96346 146.111 9.74165C145.761 9.52133 145.459 9.25784 145.204 8.95416C144.948 8.64898 144.762 8.3453 144.643 8.04161C144.526 7.73942 144.466 7.41489 144.466 7.0725C144.466 6.24332 144.798 5.53771 145.463 4.95565C146.129 4.3721 146.936 4.08032 147.885 4.08032C148.515 4.08032 149.152 4.21579 149.8 4.48821C150.447 4.76063 150.985 5.17447 151.415 5.73123L151.42 5.72974Z" fill="black"/>
<defs>
<linearGradient id="paint0_linear_2278_2469" x1="-1.16516" y1="-1.23016" x2="30.5896" y2="35.1513" gradientUnits="userSpaceOnUse">
<stop stop-color="#C9AA69"/>
<stop offset="1" stop-color="#F0DAAD"/>
</linearGradient>
</defs>
</svg>
