<svg width="174" height="20" viewBox="0 0 174 20" fill="none" xmlns="http://www.w3.org/2000/svg">
<path d="M32.255 19.9806C32.261 19.9702 32.2625 19.9568 32.258 19.9464L23.0514 0.0238126C23.0455 0.0119043 23.0306 0.00148091 23.0187 0.00148091H19.4864C19.473 0.00148091 19.4596 0.0104158 19.4536 0.0238126L16.4691 6.47811C16.4646 6.48704 16.4646 6.49895 16.4691 6.50789L18.236 10.3439C18.2479 10.3706 18.2896 10.3721 18.3015 10.3439L21.2533 3.961L27.2119 16.8562H20.5938L18.4727 12.2611C18.4727 12.2611 18.4697 12.2566 18.4682 12.2551L18.303 11.8964C18.2911 11.8681 18.2494 11.8696 18.2375 11.8964L16.1386 16.4394L14.0279 11.8964C14.016 11.8696 13.9743 11.8696 13.9624 11.8964L11.6715 16.8562H5.05349L11.0121 3.961L16.1059 14.9598C16.1193 14.9881 16.158 14.9881 16.1714 14.9598L17.9383 11.1358C17.9413 11.1268 17.9413 11.1149 17.9383 11.1045L12.8222 0.0223226C12.8162 0.0104143 12.8028 0 12.7879 0H9.24522C9.23182 0 9.21842 0.00892578 9.21247 0.0223226L0.00287849 19.9464C-0.00754128 19.9702 0.0118097 19.9985 0.0371149 19.9985H13.8225C13.8359 19.9985 13.8493 19.9881 13.8552 19.9762L15.698 15.9809L16.1029 16.8592C16.1163 16.8875 16.158 16.886 16.1684 16.8592L16.5733 15.9809L16.9157 16.7207C16.9157 16.7207 16.9157 16.7312 16.9186 16.7371L18.4146 19.9747L18.4176 19.9777C18.4235 19.9896 18.4369 20 18.4503 20H32.2253C32.2372 20 32.2491 19.9926 32.255 19.9821V19.9806Z" fill="url(#paint0_linear_2278_2443)"/>
<path d="M123.211 4.07839L126.329 15.9525H124.804L122.916 8.69733L119.668 16.3901L116.41 8.63333L114.497 15.951H112.98L116.099 4.0769L119.667 12.572L123.211 4.0769V4.07839Z" fill="black"/>
<path d="M131.475 4.57104H133.032V11.5776C133.032 12.6151 133.281 13.4174 133.779 13.9846C134.278 14.5517 134.982 14.8345 135.896 14.8345C136.81 14.8345 137.508 14.574 138.013 14.0515C138.517 13.5291 138.769 12.7937 138.769 11.8455V4.57104H140.326V11.7384C140.326 13.1346 139.927 14.2495 139.131 15.0846C138.334 15.9197 137.274 16.3365 135.95 16.3365C134.625 16.3365 133.511 15.9137 132.697 15.0667C131.883 14.2198 131.475 12.9694 131.475 11.3171V4.57104Z" fill="black"/>
<path d="M145.47 4.75415H147.01V14.6142H150.724V16.1534H145.47V4.75415Z" fill="black"/>
<path d="M155.869 4.55347H157.409V15.9527H155.869V4.55347Z" fill="black"/>
<path d="M167.891 4.11426L173.273 15.9526H171.642L170.319 13.0351H165.481L164.173 15.9526H162.553L167.891 4.11426ZM167.886 7.67187L166.063 11.7371H169.729L167.886 7.67187Z" fill="black"/>
<path d="M40.4211 4.15723H41.9796V8.54693H47.4351V4.15723H48.9758V15.5698H47.4351V10.0876H41.9796V15.5698H40.4211V4.15723Z" fill="black"/>
<path d="M54.2927 10.1548C54.2927 8.50849 54.9134 7.09587 56.1564 5.91992C57.3978 4.74546 58.8908 4.15601 60.6354 4.15601C62.38 4.15601 63.803 4.74844 65.034 5.93332C66.2636 7.1182 66.8798 8.52486 66.8798 10.1533C66.8798 11.8771 66.2725 13.3358 65.0563 14.5267C63.8417 15.7175 62.3502 16.3129 60.5818 16.3129C58.8134 16.3129 57.3546 15.713 56.1296 14.5133C54.906 13.3135 54.2927 11.8607 54.2927 10.1533V10.1548ZM65.2216 10.2263C65.2216 8.96696 64.7676 7.90712 63.8596 7.04525C62.9516 6.18339 61.8352 5.75171 60.5089 5.75171C59.1826 5.75171 58.1689 6.18935 57.2698 7.06759C56.3707 7.94434 55.9212 8.99822 55.9212 10.2263C55.9212 11.4543 56.3826 12.5275 57.3055 13.3894C58.2284 14.2513 59.3582 14.6829 60.6964 14.6829C61.926 14.6829 62.9888 14.2438 63.8804 13.3626C64.7735 12.4829 65.2201 11.4364 65.2201 10.2263H65.2216Z" fill="black"/>
<path d="M72.1953 4.15723H79.1736V5.71572H76.451V15.5698H74.9104V5.71572H72.1968V4.15723H72.1953Z" fill="black"/>
<path d="M84.4893 4.15723H90.8141V5.71572H86.0299V8.56479H90.8141V10.1054H86.0299V14.0292H90.8141V15.5698H84.4893V4.15723Z" fill="black"/>
<path d="M96.1314 4.15723H97.672V14.0292H101.389V15.5698H96.1299V4.15723H96.1314Z" fill="black"/>
<defs>
<linearGradient id="paint0_linear_2278_2443" x1="-1.16508" y1="-1.23016" x2="30.59" y2="35.149" gradientUnits="userSpaceOnUse">
<stop stop-color="#C9AA69"/>
<stop offset="1" stop-color="#F0DAAD"/>
</linearGradient>
</defs>
</svg>
