<svg width="184" height="20" viewBox="0 0 184 20" fill="none" xmlns="http://www.w3.org/2000/svg">
<path d="M32.2574 19.9821C32.2634 19.9717 32.2649 19.9583 32.2604 19.9479L23.0531 0.0238189C23.0472 0.0119097 23.0323 0.0014901 23.0204 0.0014901H19.4878C19.4744 0.0014901 19.461 0.0104211 19.4551 0.0238189L16.4703 6.4786C16.4659 6.48753 16.4659 6.49944 16.4703 6.50837L18.2373 10.3446C18.2493 10.3714 18.2909 10.3729 18.3028 10.3446L21.2548 3.9613L27.2139 16.8575H20.5954L18.474 12.262C18.474 12.262 18.4711 12.2575 18.4696 12.256L18.3043 11.8973C18.2924 11.869 18.2507 11.8705 18.2388 11.8973L16.1398 16.4406L14.0289 11.8973C14.017 11.8705 13.9753 11.8705 13.9634 11.8973L11.6724 16.8575H5.05387L11.0129 3.9613L16.1071 14.9609C16.1205 14.9892 16.1592 14.9892 16.1726 14.9609L17.9396 11.1366C17.9426 11.1277 17.9426 11.1157 17.9396 11.1053L12.8231 0.0223311C12.8172 0.0104219 12.8038 0 12.7889 0H9.2459C9.2325 0 9.21911 0.00893326 9.21315 0.0223311L0.0028787 19.9464C-0.00754185 19.9702 0.0118106 19.9985 0.0371176 19.9985H13.8235C13.8369 19.9985 13.8503 19.9881 13.8562 19.9762L15.6992 15.9806L16.1041 16.859C16.1175 16.8872 16.1592 16.8857 16.1696 16.859L16.5745 15.9806L16.9169 16.7205C16.9169 16.7205 16.9169 16.7309 16.9199 16.7369L18.416 19.9747L18.419 19.9777C18.4249 19.9896 18.4383 20 18.4517 20H32.2277C32.2396 20 32.2515 19.9926 32.2574 19.9821Z" fill="url(#paint0_linear_2278_2392)"/>
<path d="M111.589 4.09375H114.027C115.241 4.09375 116.229 4.39595 116.993 4.99885C117.755 5.60175 118.137 6.37585 118.137 7.31816C118.137 8.07142 117.89 8.73685 117.398 9.31444C116.903 9.89204 116.134 10.2984 115.089 10.5336L118.359 15.3509H116.595L113.472 10.7212H113.128V15.3509H111.59V4.09375H111.589ZM113.127 5.45438V9.37845C115.394 9.42609 116.528 8.76811 116.528 7.40748C116.528 6.92963 116.396 6.5396 116.131 6.23592C115.866 5.93223 115.513 5.7268 115.071 5.61813C114.629 5.50946 113.981 5.45438 113.127 5.45438Z" fill="black"/>
<path d="M123.452 4.10718H129.691V5.64495H124.972V8.45552H129.691V9.97543H124.972V13.8459H129.691V15.3658H123.452V4.10867V4.10718Z" fill="black"/>
<path d="M142.065 5.34871L140.819 6.34759C140.49 6.00669 140.191 5.75064 139.924 5.58392C139.656 5.4157 139.271 5.33233 138.764 5.33233C138.212 5.33233 137.764 5.45738 137.42 5.70598C137.076 5.95608 136.905 6.27763 136.905 6.67063C136.905 7.01153 137.055 7.31224 137.356 7.57424C137.657 7.83624 138.167 8.12206 138.891 8.4317C139.614 8.74283 140.177 9.03163 140.581 9.29958C140.984 9.56754 141.314 9.86378 141.574 10.1868C141.833 10.5099 142.025 10.8522 142.151 11.211C142.278 11.5698 142.34 11.9494 142.34 12.3498C142.34 13.2862 142.001 14.0826 141.319 14.7421C140.639 15.4016 139.815 15.7305 138.849 15.7305C137.883 15.7305 137.075 15.473 136.353 14.9579C135.631 14.4429 135.076 13.6688 134.687 12.6386L136.225 12.2054C136.785 13.4723 137.642 14.1049 138.796 14.1049C139.355 14.1049 139.821 13.9382 140.192 13.6033C140.563 13.2683 140.749 12.8455 140.749 12.3349C140.749 12.0298 140.652 11.7231 140.457 11.415C140.262 11.1068 140.021 10.8522 139.732 10.6528C139.443 10.4533 138.983 10.224 138.354 9.96501C137.724 9.70599 137.239 9.46929 136.898 9.25492C136.558 9.04056 136.263 8.78451 136.015 8.48678C135.766 8.18905 135.585 7.8943 135.47 7.59955C135.355 7.30479 135.297 6.99069 135.297 6.65425C135.297 5.84741 135.622 5.16114 136.269 4.59247C136.917 4.02381 137.703 3.74097 138.629 3.74097C139.242 3.74097 139.863 3.87346 140.493 4.13844C141.122 4.40342 141.648 4.80684 142.066 5.34871H142.065Z" fill="black"/>
<path d="M147.434 10.184C147.434 8.55984 148.048 7.16647 149.273 6.0083C150.498 4.84864 151.97 4.26807 153.691 4.26807C155.412 4.26807 156.816 4.85162 158.031 6.02021C159.244 7.1888 159.851 8.57622 159.851 10.184C159.851 11.8855 159.251 13.3235 158.053 14.4981C156.854 15.6726 155.382 16.2591 153.639 16.2591C151.896 16.2591 150.455 15.6681 149.247 14.4847C148.04 13.3012 147.436 11.8676 147.436 10.184H147.434ZM158.215 10.2539C158.215 9.01239 157.767 7.96587 156.872 7.11585C155.976 6.26583 154.875 5.84008 153.568 5.84008C152.261 5.84008 151.26 6.27328 150.373 7.13818C149.486 8.00309 149.044 9.04217 149.044 10.2539C149.044 11.4657 149.499 12.5241 150.409 13.3741C151.318 14.2242 152.433 14.6499 153.754 14.6499C154.967 14.6499 156.015 14.2152 156.895 13.3473C157.776 12.4795 158.215 11.4478 158.215 10.2539Z" fill="black"/>
<path d="M164.956 5.00195H167.394C168.607 5.00195 169.596 5.30415 170.359 5.90705C171.122 6.50996 171.504 7.28405 171.504 8.22637C171.504 8.97962 171.257 9.64505 170.764 10.2226C170.27 10.8002 169.5 11.2066 168.455 11.4418L171.726 16.2591H169.962L166.839 11.6294H166.495V16.2591H164.957V5.00195H164.956ZM166.493 6.36258V10.2867C168.761 10.3343 169.895 9.67631 169.895 8.31569C169.895 7.83783 169.762 7.4478 169.497 7.14412C169.232 6.84043 168.88 6.635 168.438 6.52633C167.995 6.41766 167.348 6.36258 166.493 6.36258Z" fill="black"/>
<path d="M176.831 5.00195H183.714V6.53973H181.027V16.2591H179.507V6.53973H176.829V5.00195H176.831Z" fill="black"/>
<path d="M50.5546 3.90454L53.642 15.6619H52.1311L50.2628 8.47916L47.0458 16.0966L43.8199 8.41664L41.9264 15.6634H40.4243L43.5118 3.90603L47.0458 12.3184L50.5561 3.90603L50.5546 3.90454Z" fill="black"/>
<path d="M58.7373 4.44531H60.2795V11.3824C60.2795 12.4096 60.5267 13.2045 61.0194 13.7657C61.5121 14.327 62.2103 14.6068 63.1154 14.6068C64.0205 14.6068 64.7113 14.3478 65.2114 13.8312C65.7101 13.3147 65.9602 12.5867 65.9602 11.6474V4.44531H67.5025V11.5417C67.5025 12.9232 67.108 14.0277 66.319 14.8554C65.53 15.6831 64.4805 16.0955 63.169 16.0955C61.8575 16.0955 60.7544 15.6757 59.9491 14.8376C59.1422 13.9995 58.7403 12.7609 58.7403 11.1249V4.44531H58.7373Z" fill="black"/>
<path d="M72.5955 4.80835H74.1198V14.5724H77.7968V16.0968H72.5955V4.80984V4.80835Z" fill="black"/>
<path d="M82.8911 4.80835H84.4155V16.0953H82.8911V4.80835Z" fill="black"/>
<path d="M94.7957 4.37378L100.125 16.0954H98.5099L97.1999 13.2074H92.4094L91.1143 16.0954H89.511L94.7957 4.37378ZM94.7912 7.89592L92.9855 11.9212H96.6163L94.7912 7.89592Z" fill="black"/>
<defs>
<linearGradient id="paint0_linear_2278_2392" x1="-1.16516" y1="-1.23016" x2="30.5896" y2="35.1513" gradientUnits="userSpaceOnUse">
<stop stop-color="#C9AA69"/>
<stop offset="1" stop-color="#F0DAAD"/>
</linearGradient>
</defs>
</svg>
