<svg width="180" height="20" viewBox="0 0 180 20" fill="none" xmlns="http://www.w3.org/2000/svg">
<path d="M32.255 19.9806C32.261 19.9702 32.2625 19.9568 32.258 19.9464L23.0514 0.0238172C23.0454 0.0119088 23.0306 0.00148999 23.0187 0.00148999H19.4864C19.473 0.00148999 19.4596 0.0104203 19.4536 0.0238172L16.4691 6.47812C16.4646 6.48705 16.4646 6.49896 16.4691 6.50789L18.236 10.3439C18.2479 10.3706 18.2896 10.3721 18.3015 10.3439L21.2532 3.961L27.2119 16.8562H20.5938L18.4727 12.2611C18.4727 12.2611 18.4697 12.2566 18.4682 12.2551L18.303 11.8964C18.2911 11.8681 18.2494 11.8696 18.2375 11.8964L16.1386 16.4394L14.0279 11.8964C14.016 11.8696 13.9743 11.8696 13.9624 11.8964L11.6715 16.8562H5.05349L11.0121 3.961L16.1059 14.9598C16.1193 14.9881 16.158 14.9881 16.1714 14.9598L17.9383 11.1358C17.9412 11.1268 17.9412 11.1149 17.9383 11.1045L12.8222 0.0223317C12.8162 0.0104234 12.8028 0 12.7879 0H9.24521C9.23181 0 9.21842 0.00893486 9.21246 0.0223317L0.00287848 19.9464C-0.00754128 19.9702 0.0118097 19.9985 0.0371149 19.9985H13.8225C13.8359 19.9985 13.8493 19.9881 13.8552 19.9762L15.698 15.9809L16.1029 16.8592C16.1163 16.8875 16.158 16.886 16.1684 16.8592L16.5733 15.9809L16.9156 16.7208C16.9156 16.7208 16.9156 16.7312 16.9186 16.7371L18.4146 19.9747L18.4176 19.9777C18.4235 19.9896 18.4369 20 18.4503 20H32.2253C32.2372 20 32.2491 19.9926 32.255 19.9821V19.9806Z" fill="url(#paint0_linear_2278_2416)"/>
<path d="M50.5506 3.9043L53.6379 15.6608H52.127L50.2589 8.47858L47.0422 16.0954L43.8165 8.41606L41.9231 15.6623H40.4211L43.5084 3.90579L47.0422 12.3175L50.5521 3.90579L50.5506 3.9043Z" fill="black"/>
<path d="M58.7334 4.44482H60.2755V11.3814C60.2755 12.4085 60.5226 13.2034 61.0153 13.7646C61.508 14.3257 62.2062 14.6056 63.1112 14.6056C64.0162 14.6056 64.7069 14.3466 65.207 13.8301C65.7057 13.3135 65.9558 12.5856 65.9558 11.6464V4.44482H67.4979V11.5407C67.4979 12.922 67.1034 14.0265 66.3145 14.8542C65.5256 15.6818 64.4762 16.0941 63.1648 16.0941C61.8534 16.0941 60.7504 15.6744 59.9451 14.8363C59.1383 13.9983 58.7364 12.7598 58.7364 11.1239V4.44482H58.7334Z" fill="black"/>
<path d="M72.5898 4.80786H74.1141V14.5712H77.7908V16.0954H72.5898V4.80935V4.80786Z" fill="black"/>
<path d="M82.8848 4.80786H84.409V16.094H82.8848V4.80786Z" fill="black"/>
<path d="M94.7885 4.37476L100.117 16.0955H98.5024L97.1925 13.2077H92.4023L91.1073 16.0955H89.5042L94.7885 4.37476ZM94.784 7.89664L92.9784 11.9216H96.6089L94.784 7.89664Z" fill="black"/>
<path d="M111.581 4.09497H113.248L116.878 12.2819L120.536 4.09497H122.216L116.859 16.0271L111.582 4.09497H111.581Z" fill="black"/>
<path d="M127.458 4.28101H129.018V15.841H127.458V4.28101Z" fill="black"/>
<path d="M134.26 4.28079H135.82V14.2793H139.586V15.8393H134.26V4.2793V4.28079Z" fill="black"/>
<path d="M144.829 4.28079H146.389V14.2793H150.155V15.8393H144.829V4.2793V4.28079Z" fill="black"/>
<path d="M160.81 4.05933L166.266 16.0629H164.613L163.272 13.1052H158.367L157.041 16.0629H155.399L160.811 4.05933H160.81ZM160.805 7.66754L158.956 11.7908H162.675L160.805 7.66754Z" fill="black"/>
<path d="M179.089 5.55535L177.81 6.58096C177.472 6.22966 177.166 5.96917 176.892 5.7965C176.618 5.62383 176.22 5.53749 175.701 5.53749C175.134 5.53749 174.674 5.6655 174.32 5.92153C173.967 6.17756 173.79 6.50802 173.79 6.91141C173.79 7.26122 173.944 7.57083 174.253 7.83877C174.561 8.10671 175.086 8.39995 175.829 8.71999C176.572 9.03854 177.149 9.33624 177.563 9.61162C177.977 9.887 178.316 10.1907 178.583 10.5226C178.848 10.8545 179.046 11.2058 179.175 11.5735C179.305 11.9427 179.37 12.3327 179.37 12.7435C179.37 13.7051 179.02 14.5238 178.322 15.2011C177.624 15.8784 176.779 16.2163 175.786 16.2163C174.793 16.2163 173.964 15.9513 173.223 15.4229C172.481 14.893 171.911 14.0996 171.512 13.0412L173.092 12.5961C173.666 13.8971 174.546 14.5461 175.732 14.5461C176.307 14.5461 176.785 14.3749 177.166 14.0311C177.547 13.6872 177.737 13.2526 177.737 12.7286C177.737 12.4145 177.638 12.1005 177.438 11.7834C177.239 11.4663 176.99 11.2058 176.694 11.0004C176.398 10.795 175.926 10.5598 175.278 10.2949C174.631 10.0299 174.134 9.78578 173.784 9.56548C173.435 9.34517 173.133 9.0817 172.877 8.77655C172.621 8.4714 172.435 8.16774 172.318 7.86556C172.198 7.56339 172.14 7.24038 172.14 6.89504C172.14 6.06741 172.472 5.36184 173.139 4.77834C173.805 4.19483 174.611 3.90308 175.561 3.90308C176.191 3.90308 176.828 4.03854 177.475 4.31094C178.123 4.58334 178.66 4.99715 179.09 5.55386L179.089 5.55535Z" fill="black"/>
<defs>
<linearGradient id="paint0_linear_2278_2416" x1="-1.16508" y1="-1.23016" x2="30.59" y2="35.149" gradientUnits="userSpaceOnUse">
<stop stop-color="#C9AA69"/>
<stop offset="1" stop-color="#F0DAAD"/>
</linearGradient>
</defs>
</svg>
