<?xml version="1.0" encoding="UTF-8"?>
<svg id="Layer_1" xmlns="http://www.w3.org/2000/svg" version="1.1" viewBox="0 0 106 56">
  <!-- Generator: Adobe Illustrator 29.7.1, SVG Export Plug-In . SVG Version: 2.1.1 Build 8)  -->
  <defs>
    <style>
      .st0 {
        stroke: #eef1de;
        stroke-miterlimit: 10;
        stroke-width: .5px;
      }

      .st0, .st1 {
        fill: #eef1de;
      }
    </style>
  </defs>
  <g>
    <polygon class="st1" points="52.52 24.13 54.91 33.24 53.74 33.24 52.29 27.67 49.8 33.58 47.3 27.63 45.83 33.24 44.67 33.24 47.06 24.13 49.8 30.65 52.52 24.13"/>
    <path class="st1" d="M58.8,25.36h1.08v4.87c0,.72.17,1.28.52,1.68.35.39.84.59,1.47.59s1.12-.18,1.47-.54c.35-.36.53-.87.53-1.53v-5.06h1.08v4.99c0,.97-.28,1.75-.83,2.33-.55.58-1.29.87-2.21.87s-1.7-.29-2.26-.88c-.57-.59-.85-1.46-.85-2.61v-4.71Z"/>
    <polygon class="st1" points="69.49 25.34 70.57 25.34 70.57 32.2 73.15 32.2 73.15 33.27 69.49 33.27 69.49 25.34"/>
    <rect class="st1" x="77.29" y="25.34" width="1.07" height="7.93"/>
    <path class="st1" d="M85.61,27.51l-1.27,2.83h2.55s-1.28-2.83-1.28-2.83ZM85.61,25.04l3.74,8.24h-1.13l-.92-2.03h-3.37l-.91,2.03h-1.13l3.71-8.24h.01Z"/>
    <polygon class="st1" points="16.65 25.34 21.5 25.34 21.5 26.43 19.6 26.43 19.6 33.27 18.53 33.27 18.53 26.43 16.65 26.43 16.65 25.34"/>
    <polygon class="st1" points="25.05 25.34 26.13 25.34 26.13 28.39 29.92 28.39 29.92 25.34 30.99 25.34 30.99 33.27 29.92 33.27 29.92 29.46 26.13 29.46 26.13 33.27 25.05 33.27 25.05 25.34"/>
    <polygon class="st1" points="34.92 25.34 39.31 25.34 39.31 26.43 35.99 26.43 35.99 28.41 39.31 28.41 39.31 29.48 35.99 29.48 35.99 32.2 39.31 32.2 39.31 33.27 34.92 33.27 34.92 25.34"/>
  </g>
  <path class="st1" d="M69.71,21.06v-.04L60.17.38s-.02-.02-.03-.02h-3.66s-.03,0-.03.02l-3.09,6.69v.03l1.83,3.98s.06.03.07,0l3.06-6.61,6.17,13.36h-6.86l-2.2-4.76h0l-.17-.37s-.06-.03-.07,0l-2.18,4.71-2.19-4.71s-.06-.03-.07,0l-2.37,5.14h-6.86l6.17-13.36,5.28,11.4s.05.03.07,0l1.83-3.96v-.03L49.57.38s-.02-.02-.03-.02h-3.67s-.03,0-.03.02l-9.54,20.65s0,.05.04.05h14.29s.03-.01.03-.02l1.91-4.14.42.91s.06.03.07,0l.42-.91.35.77v.02l1.55,3.35h0s.02.03.03.03h14.27s.03,0,.03-.02h0Z"/>
  <g>
    <path class="st0" d="M14.14,38.19c.06.07.1.16.1.18s-.04.06-.1.06-.37-.04-.45-.04c-.17,0-.35.01-.54.06-.59.13-1.14.27-1.72.37v3.37h1.16l.59-.86.92.89c.1.1.16.17.16.24s-.07.13-.23.13h-2.6v1.5c1.23.21,2.2.62,2.44,1.09.06.11.1.24.1.37,0,.35-.21.69-.45.69-.16,0-.27-.1-.42-.51-.16-.37-.82-.89-1.67-1.38v6.31c0,.37.01,2.16.01,2.57,0,.24-.07.35-.47.62-.16.1-.27.16-.34.16-.1,0-.13-.1-.13-.3v-.17c.07-.99.13-1.85.13-2.91v-6.07c-.95,1.88-1.98,3.6-3.2,5.28l-.23-.17c1.51-2.47,2.71-4.69,3.42-7.07h-1.38c-.4,0-.93.07-1.26.21l-.52-.69c.47.04.93.07,1.36.07h1.81v-3.23c-.82.16-1.72.31-2.79.47l-.06-.24c2.22-.58,3.88-1.14,5.69-1.91l.65.89.03.04ZM23.61,50.56c.07.06.1.11.1.16s-.04.07-.16.07c-.47.01-.89.1-1.12.23-2.71,1.64-5.8,3.02-9.75,3.32v-.21c4.69-.99,6.8-2.13,9.99-4.4l.93.83h0ZM16.91,44.83c.07.04.13.1.13.13s-.06.07-.16.11c-.27.07-.47.16-.62.28l-2.99,2.44-.17-.16c1.12-1.2,2.15-2.37,2.89-3.37l.89.56h.03ZM21.68,46.79s.07.1.07.11c0,.07-.01.07-.28.07-.3,0-.58.07-.79.18-1.58.99-3.59,2.15-7.11,3.13l-.1-.21c3.53-1.51,5.75-2.85,7.35-4.07l.85.76h.01ZM22.2,48.85s.06.07.06.1c0,.1-.04.1-.4.1-.25,0-.47.07-.59.16-2.26,1.31-4.14,2.19-7.59,3.06l-.13-.23c3.7-1.31,6.17-2.77,7.83-3.98l.82.8h0ZM23.36,38.67c.07.04.11.11.11.17s-.04.13-.13.18l-.52.35v2.27c0,.24.07,1.33.07,1.55,0,.25-.71.48-.76.48-.11,0-.11-.04-.11-.48h-6.17c0,.45,0,.47-.35.62-.2.1-.34.13-.4.13-.07,0-.1-.06-.1-.13,0-.48.06-1.27.06-1.75v-2.37c0-.45-.01-1.12-.06-1.69l.97.71h1.52c.28-.82.42-1.41.54-2.1l1.09.45c.16.07.23.13.23.17s-.06.07-.16.11c-.41.16-.82.52-1.36,1.38h3.92l.47-.76,1.14.73v-.03ZM22.02,40.73v-1.62h-6.17v1.62h6.17ZM22.02,42.79v-1.67h-6.17v1.67h6.17ZM19.32,43.82c.1.04.13.07.13.13,0,.04-.04.1-.11.13l-.42.23v1.4c0,.41.01.64.04.88,0,.28-.73.41-.73.41-.1,0-.11-.04-.11-.17,0-.16.01-.93.01-1.1v-1.41c0-.41,0-.68-.04-1l1.23.52h.01ZM20.48,44.16c1.96.59,2.78,1.1,3.15,1.45.24.24.35.48.35.73,0,.35-.24.64-.47.64-.13,0-.25-.13-.4-.34-.4-.62-1.2-1.38-2.72-2.27l.07-.2h.01Z"/>
    <path class="st0" d="M42.7,38.25c.11.11.17.2.17.25,0,.1-.07.13-.24.13h-15.09c-.4,0-.93.07-1.26.21l-.52-.69c.47.04.93.07,1.37.07h13.66l.75-1.04,1.17,1.06h-.01ZM33.55,41.45c.1.07.16.16.16.2s-.06.11-.16.21l-.45.4v9.09c0,1.44-.13,1.64-1.09,2.16-.07.04-.13.06-.17.06-.07,0-.1-.06-.11-.16-.1-.69-.4-.95-2.08-1.5l.06-.24c.97.21,1.58.3,1.96.3.54,0,.62-.18.62-.52v-9.63h-3.78v8.75c0,.79.01,1.91.06,2.51v.07c0,.31-.75.65-.8.65-.1,0-.13-.1-.13-.3v-.11c.04-1.06.06-2.37.06-3.64v-6.86c0-.69-.01-1.82-.06-2.46l1.14.97h3.23l.56-.82.99.86h-.01ZM29.34,44.12c.68.62,1.82,2.27,1.82,3.08,0,.58-.4,1.03-.75,1.03-.27,0-.3-.1-.3-.73,0-.71-.3-2.2-.97-3.26l.18-.11h.01ZM41.59,41.37c.07.06.13.13.13.21s-.04.16-.13.23l-.48.42v9.27c0,1.51-.27,1.72-1.21,2.24-.07.04-.13.06-.17.06-.07,0-.11-.06-.13-.13-.24-.85-.52-1.04-2.19-1.47l.04-.28c1.09.21,1.75.3,2.16.3.62,0,.69-.21.69-.59v-9.75h-4.19v8.12c0,1.17.01,2.16.06,3.02,0,.21-.04.3-.48.58-.11.07-.21.11-.25.11-.11,0-.16-.11-.16-.37.01-1.1.01-2.15.01-3.35v-7.02c0-.69-.01-1.82-.06-2.46l1.1.95h3.54l.64-.89,1.09.82v-.03ZM37.13,44.23c.68.62,1.75,2.05,1.86,2.6.01.13.04.24.04.35,0,.59-.31,1.06-.75,1.06-.25,0-.34-.1-.34-.73,0-.71-.34-2.1-1-3.18l.18-.11h0Z"/>
    <path class="st0" d="M61.48,51.52c.13.1.18.18.18.27,0,.1-.1.16-.25.16h-7.96v1.47c0,.4-.76.65-.76.65-.13,0-.17-.16-.17-.48,0-.47.07-2.78.07-3.3v-7.55c-.69,1.17-1.4,2.2-2.22,3.19l-.23-.16c.47-.69.86-1.34,1.23-1.98h-2.08v8.37c0,.92-.28,1.21-1.12,1.67-.06.04-.11.04-.16.04-.1,0-.17-.06-.18-.18-.1-.52-.56-.79-2.19-1.27l.06-.28c1.12.25,1.79.37,2.19.37.52,0,.56-.2.56-.58v-6.86c-1.16,2.41-2.09,3.88-4.05,6.1l-.17-.18c1.96-2.67,2.88-4.36,3.99-7.19h-1.92l-.4.45s-.1.07-.17.07c-.04,0-.1-.01-.17-.06l-.93-.59.69-.51.4-1.93c.1-.47.18-.92.23-1.33l1.1.59c.07.04.11.07.11.11,0,.06-.06.1-.56.34l-.48,2.44h2.33v-4.52h-2.36c-.4,0-.93.07-1.26.21l-.52-.69c.47.04.93.07,1.37.07h4.74l.62-.89,1,.89c.11.11.17.2.17.28s-.07.13-.23.13h-2.71v4.52h.76l.58-.8.92.86c1-1.88,1.69-3.77,2.63-6.48l1.16.58c.11.06.17.11.17.17s-.06.11-.17.17c-.4.16-.51.28-.69.73-.24.54-.47,1.04-.71,1.52h5.49l.75-1.04,1.17,1.04c.13.1.18.18.18.25,0,.1-.1.16-.25.16h-4.04v3.19h1.74l.69-.95,1.09.95c.13.11.18.21.18.28s-.1.13-.25.13h-3.43v3.15h1.68l.69-.95,1.09.95c.13.11.18.21.18.28s-.1.13-.25.13h-3.37v3.83h2.32l.75-1.04,1.17,1.04h-.03ZM56.37,43.71v-3.19h-2.61c-.11.21-.21.42-.31.64v2.56h2.94-.01ZM56.37,47.28v-3.15h-2.94v3.15h2.94ZM56.37,51.52v-3.83h-2.94v3.83h2.94ZM56.12,36.86c1.55.88,1.96,1.37,1.96,1.99,0,.48-.31.73-.56.73s-.28-.1-.35-.56c-.11-.68-.42-1.26-1.17-2.02l.13-.16h0Z"/>
    <path class="st0" d="M62.99,41.38c2.09.59,2.77,1.5,2.77,2.02,0,.45-.37.69-.59.69s-.47-.18-.59-.56c-.17-.51-.62-1.2-1.69-1.93l.13-.21h-.01ZM67.91,40.15c-.59,2.37-1.4,5.38-1.88,7.07-.17.59-.27,1.1-.27,1.64,0,.8.18,1.69.52,3.23.06.23.07.42.07.62,0,.47-.18.76-.69.76-.41,0-.59-.24-.59-.86,0-.3.06-1.67.06-1.91,0-1.3-.16-1.75-.4-1.92-.35-.24-.88-.42-1.62-.51l.04-.24c1.58,0,1.78-.11,2.26-1.58l2.16-6.38.34.07ZM64.1,37.34c1.72.42,2.56,1.06,2.71,1.47.06.17.1.34.1.47,0,.52-.37.82-.62.82-.18,0-.3-.13-.52-.69s-.71-1.17-1.78-1.86l.11-.21h0ZM79.98,38.06c.13.13.18.23.18.28,0,.07-.1.11-.28.11h-4.64v2.94h2.03l.59-.95,1.16.73c.16.1.23.16.23.23,0,.06-.06.11-.18.18l-.52.34v7.52c0,1.41.04,2.54.1,3.37v.13c0,.24-.07.3-.45.52-.18.11-.31.18-.4.18-.1,0-.13-.11-.13-.34v-1.5h-8.13v1.5c0,.34-.82.56-.82.56-.11,0-.16-.1-.16-.31,0-.07.01-.17.01-.27.06-.8.07-1.64.07-2.82v-7.61c0-.69-.01-1.81-.06-2.43l1,.95h2.1v-2.94h-2.37c-.4,0-.93.07-1.26.21l-.52-.69c.47.04.93.07,1.36.07h9.05l.86-1.1,1.14,1.12h.03ZM77.66,48.58v-6.79h-2.43v3.53c0,.37.24.64.8.64.2,0,.47-.04.79-.13.37.27.68.65.68.79,0,.04-.04.07-.13.07-.41.01-.76.01-1.09.01-1.75,0-1.92-.23-1.92-1.2v-3.71h-1.81c0,3.19-.24,4.71-2.8,6.08l-.04-.31c1.96-1.68,1.99-2.48,1.99-5.76h-2.19v6.79h8.13,0ZM77.66,51.4v-2.41h-8.13v2.41h8.13ZM74.36,41.38v-2.94h-1.81v2.94h1.81Z"/>
    <path class="st0" d="M98.61,39.41c.11.11.18.18.18.24s-.1.07-.25.07h-13.64v4.63c0,4.8-.48,7.03-3.12,9.46l-.16-.17c2.05-2.94,2.41-4.22,2.41-9.16v-3.99c0-.71-.04-1.52-.06-2.16l1.28.99h11.31l.79-1.09,1.26,1.17h-.01ZM97.92,43.64c.1.1.13.17.13.21,0,.06-.06.07-.21.07h-5.97v3.42h3.49l.42-.71,1.17.71c.1.06.16.11.16.17,0,.04-.06.1-.16.17l-.51.4v2.94c0,.64.01,1.17.07,2.02v.07c0,.31-.11.4-.52.56-.18.07-.3.11-.35.11-.11,0-.13-.1-.13-.24v-1.17h-7.74v1.16c0,.23-.04.34-.35.47-.17.07-.28.11-.35.11-.13,0-.16-.11-.16-.4,0-.41.06-2.39.06-2.54v-2.78c0-.45-.01-1.34-.06-1.92l1.1.89h2.95v-4.69c0-.73-.04-1.92-.07-2.57l1.41.73c.1.06.16.1.16.13,0,.06-.04.1-.11.13l-.48.31v2.13h4.14l.76-1.04,1.14,1.17h.01ZM95.53,51.93v-4.18h-7.74v4.18h7.74ZM89.5,36.7c1.4.4,2.19.95,2.33,1.4.04.1.06.2.06.3,0,.48-.41.86-.71.86-.16,0-.28-.25-.41-.71-.1-.3-.48-.95-1.36-1.68l.1-.17h-.01Z"/>
  </g>
</svg>