<?xml version="1.0" encoding="UTF-8"?>
<svg id="Layer_1" xmlns="http://www.w3.org/2000/svg" xmlns:xlink="http://www.w3.org/1999/xlink" version="1.1" viewBox="0 0 180 20">
  <!-- Generator: Adobe Illustrator 29.7.1, SVG Export Plug-In . SVG Version: 2.1.1 Build 8)  -->
  <defs>
    <style>
      .st0 {
        fill: url(#linear-gradient);
      }

      .st1 {
        fill: #231f20;
        stroke: #000;
        stroke-miterlimit: 10;
        stroke-width: .25px;
      }
    </style>
    <linearGradient id="linear-gradient" x1=".48" y1="22.55" x2="32.23" y2="-13.83" gradientTransform="translate(0 19.89) scale(1 -1)" gradientUnits="userSpaceOnUse">
      <stop offset="0" stop-color="#c9aa69"/>
      <stop offset="1" stop-color="#f0daad"/>
    </linearGradient>
  </defs>
  <path class="st0" d="M32.26,19.98s0-.02,0-.03L23.05.02S23.03,0,23.02,0h-3.53s-.03,0-.03.02l-2.98,6.45s0,.02,0,.03l1.77,3.84s.05.03.07,0l2.95-6.38,5.96,12.9h-6.62l-2.12-4.6s0,0,0,0l-.17-.36s-.05-.03-.07,0l-2.1,4.54-2.11-4.54s-.05-.03-.07,0l-2.29,4.96h-6.62L11.01,3.96l5.09,11s.05.03.07,0l1.77-3.82s0-.02,0-.03L12.82.02S12.8,0,12.79,0h-3.54s-.03,0-.03.02L0,19.95s0,.05.03.05h13.79s.03-.01.03-.02l1.84-4,.4.88s.06.03.07,0l.4-.88.34.74s0,.01,0,.02l1.5,3.24h0s.02.03.03.03h13.78s.02,0,.03-.02Z"/>
  <g>
    <path class="st1" d="M53.34,12.94c.09,2.11.14,2.43.64,2.7.07.04.11.07.11.13,0,.03,0,.05-.02.09-.44,1.07-.8,1.46-2.29,1.49-1.51.04-3.27.04-4.94.04-1.37,0-2.68,0-3.77-.02-2.36-.04-2.59-.32-2.59-2.1V4.72c0-.82-.03-1.48-.05-1.97l1.28,1.01h8.92l.55-.76,1.12.87c.09.07.14.14.14.2,0,.07-.03.12-.12.18l-.57.37v3.52c0,.28.07,1.53.07,1.74,0,.25-.09.34-.45.53-.14.07-.23.11-.3.11-.11,0-.14-.09-.14-.23v-1.01h-9.61v6.16c0,1.15.23,1.15,4.76,1.15,1.99,0,3.91-.03,5.49-.09,1.21-.04,1.26-.21,1.51-3.55h.27ZM45.68,8.91v-4.78h-4.37v4.78h4.37ZM50.92,8.91v-4.78h-4.42v4.78h4.42Z"/>
    <path class="st1" d="M71.62,3.37c.11.11.16.2.16.25s-.09.09-.21.09h-12.51c-.11,5.4-.25,7.98-.44,9.01-.35,1.83-.96,3.66-2.74,5.35l-.18-.13c2.18-2.79,2.43-4.8,2.43-13.25,0-.78,0-1.58-.02-2.42l1.28,1.03h10.44l.75-1,1.03,1.07ZM71.9,16.76c.09.09.14.16.14.21,0,.07-.09.12-.21.12h-12.13c-.37,0-.89.07-1.19.2l-.5-.66c.44.04.89.07,1.3.07h5.72v-2.54h-3.3c-.37,0-.89.07-1.19.2l-.5-.66c.44.04.89.07,1.3.07h3.69v-2.36h-3.2q0,.46-.41.71c-.14.09-.25.14-.32.14-.09,0-.11-.09-.11-.21,0-.37.03-2.13.03-2.52v-3.25c0-.39-.02-1.15-.05-1.65l1.1.89h6.73l.66-.8,1.01.91c.11.11.16.18.16.23,0,.07-.05.12-.12.16l-.57.3v2.86c0,.71.02,1.44.05,2.13v.12c0,.23-.05.3-.34.48-.21.12-.34.2-.43.2-.12,0-.12-.07-.12-.69h-3.29v2.36h3.27l.68-.92,1.03.99c.09.07.12.14.12.2,0,.07-.07.12-.2.12h-4.9v2.54h4.35l.68-.96,1.05,1.01ZM65.03,8.29v-2.38h-3.2v2.38h3.2ZM65.03,11.02v-2.35h-3.2v2.35h3.2ZM69.11,8.29v-2.38h-3.29v2.38h3.29ZM69.11,11.02v-2.35h-3.29v2.35h3.29Z"/>
    <path class="st1" d="M84.73,12.74c.11.05.18.09.18.14,0,.03-.05.09-.16.14l-.43.25v1.97c0,.37.02.64.04.89,0,.18-.66.36-.76.36-.09,0-.11-.05-.11-.14v-.48h-7.3l-.39.59c-.05.07-.09.11-.12.11s-.07-.02-.12-.05l-1.14-.68.66-.57v-2.04c0-.41-.02-.71-.05-1.22l1.26.62c.12.05.18.09.18.14,0,.07-.05.11-.53.43v2.29h3.25v-2.86c0-.41-.02-.71-.05-1.23l1.33.62c.14.05.21.11.21.16s-.07.11-.2.18l-.46.27v2.86h3.48v-1.97c0-.48-.02-.78-.05-1.35l1.3.59ZM88.87,10.38c.14.09.21.14.21.21,0,.05-.07.11-.2.18l-.57.32c-.14,2.68-.37,4.83-.55,5.54-.25,1.03-.71,1.49-2.04,1.9-.05.02-.09.02-.13.02-.11,0-.14-.05-.18-.19-.14-.52-.84-.89-2.2-1.28l.04-.25c1.1.28,1.88.43,2.43.43.73,0,1.05-.25,1.21-.71.39-1.17.55-3.54.59-5.81h-9.61c-.25.3-.48.59-.57.59-.05,0-.11-.04-.18-.09l-.94-.71.64-.55v-5.19c0-.36-.03-1.39-.09-1.87l1.05.92h1.62c.46-1.03.76-1.88.89-2.4l1.15.53c.11.05.16.09.16.12,0,.05-.05.07-.18.11-.37.07-.48.14-1.67,1.63h5.22l.53-.8,1.08.82c.12.09.18.14.18.2,0,.07-.07.12-.21.21l-.46.27c-.21,3.96-.5,4.42-1.94,5.26-.07.05-.14.07-.18.07-.07,0-.11-.05-.14-.2-.14-.57-.52-.94-1.76-1.23l.05-.25c.87.18,1.44.27,1.83.27.57,0,.76-.18.92-.55.16-.37.39-1.83.39-3.68h-7.62v6.11h9.59l.5-.76,1.12.8ZM79.61,5.55c1.53.14,2.38.66,2.49,1.03.03.12.05.23.05.34,0,.36-.16.64-.37.64-.18,0-.3-.09-.52-.43-.25-.39-.76-.98-1.67-1.4l.02-.18Z"/>
    <path class="st1" d="M98.07,3.12c.05.07.09.14.09.18s-.03.05-.09.05-.36-.04-.43-.04c-.16,0-.34.02-.52.05-.57.13-1.08.25-1.63.36v3.22h1.1l.57-.82.87.85c.09.09.14.16.14.23s-.07.12-.21.12h-2.47v1.42c1.17.2,2.1.59,2.33,1.03.05.11.09.23.09.36,0,.34-.2.66-.43.66-.14,0-.25-.09-.41-.48-.14-.36-.78-.85-1.58-1.32v6c0,.35.02,2.06.02,2.45,0,.23-.07.34-.44.59-.14.09-.25.14-.32.14-.09,0-.12-.09-.12-.28v-.16c.07-.94.12-1.76.12-2.77v-5.77c-.91,1.79-1.88,3.43-3.06,5.03l-.21-.16c1.44-2.35,2.58-4.46,3.25-6.73h-1.31c-.37,0-.89.07-1.19.2l-.5-.66c.44.04.89.07,1.3.07h1.72v-3.07c-.78.14-1.63.3-2.67.44l-.05-.23c2.11-.55,3.69-1.08,5.42-1.81l.62.85ZM107.09,14.89c.07.05.09.11.09.14s-.04.07-.14.07c-.44.02-.85.09-1.07.21-2.58,1.56-5.52,2.88-9.29,3.16v-.2c4.46-.94,6.48-2.03,9.52-4.19l.89.8ZM100.7,9.44c.07.04.12.09.12.13s-.05.07-.14.11c-.25.07-.44.14-.59.27l-2.84,2.33-.16-.14c1.07-1.14,2.04-2.26,2.75-3.22l.85.53ZM105.25,11.31c.05.04.07.09.07.11,0,.07-.02.07-.27.07-.28,0-.55.07-.75.18-1.51.94-3.41,2.04-6.77,2.98l-.09-.2c3.36-1.44,5.47-2.72,7-3.87l.8.73ZM105.74,13.26s.05.07.05.09c0,.09-.04.09-.37.09-.25,0-.44.07-.57.14-2.15,1.24-3.94,2.08-7.23,2.91l-.12-.21c3.52-1.24,5.88-2.63,7.46-3.78l.78.76ZM106.85,3.58c.07.04.11.11.11.16s-.03.12-.12.18l-.5.34v2.17c0,.23.07,1.26.07,1.48,0,.25-.68.46-.73.46-.11,0-.11-.04-.11-.46h-5.88c0,.43,0,.44-.34.59-.19.09-.32.12-.37.12-.07,0-.09-.05-.09-.12,0-.46.05-1.21.05-1.67v-2.26c0-.43-.02-1.07-.05-1.62l.92.68h1.46c.27-.78.41-1.35.51-2.01l1.03.43c.14.07.21.12.21.16s-.05.07-.14.11c-.39.14-.78.5-1.3,1.32h3.73l.44-.73,1.08.69ZM105.57,5.53v-1.55h-5.88v1.55h5.88ZM105.57,7.5v-1.58h-5.88v1.58h5.88ZM103.01,8.48c.09.03.13.07.13.12,0,.04-.04.09-.11.12l-.41.21v1.33c0,.39.02.6.04.83,0,.27-.69.39-.69.39-.09,0-.11-.04-.11-.16,0-.14.02-.89.02-1.05v-1.35c0-.39,0-.64-.04-.96l1.17.5ZM104.11,8.8c1.87.57,2.65,1.05,3,1.38.23.23.34.46.34.69,0,.34-.23.6-.44.6-.12,0-.25-.12-.37-.32-.37-.59-1.14-1.31-2.59-2.17l.07-.19Z"/>
    <path class="st1" d="M125.25,3.17c.11.11.16.19.16.25,0,.09-.07.12-.23.12h-14.37c-.37,0-.89.07-1.19.2l-.5-.66c.44.04.89.07,1.3.07h13l.71-1,1.12,1.01ZM116.55,6.23c.09.07.14.14.14.19s-.05.11-.14.2l-.43.37v8.65c0,1.37-.12,1.56-1.03,2.06-.07.04-.12.05-.16.05-.07,0-.09-.05-.11-.14-.09-.66-.37-.91-1.97-1.42l.05-.23c.92.2,1.51.28,1.87.28.52,0,.59-.18.59-.5V6.58h-3.61v8.33c0,.75.02,1.81.05,2.4v.07c0,.3-.71.62-.76.62-.09,0-.13-.09-.13-.28v-.11c.04-1.01.05-2.26.05-3.46v-6.54c0-.66-.02-1.74-.05-2.34l1.08.92h3.07l.53-.78.94.82ZM112.55,8.77c.64.59,1.74,2.17,1.74,2.93,0,.55-.37.98-.71.98-.25,0-.28-.09-.28-.69,0-.68-.28-2.1-.92-3.11l.18-.11ZM124.2,6.14c.07.05.12.12.12.2s-.04.14-.12.21l-.46.41v8.83c0,1.44-.25,1.63-1.16,2.13-.07.04-.12.05-.16.05-.07,0-.11-.05-.12-.12-.23-.8-.5-.99-2.08-1.4l.04-.27c1.03.2,1.67.28,2.06.28.59,0,.66-.2.66-.57V6.6h-4v7.73c0,1.12.02,2.06.05,2.88,0,.2-.04.28-.46.55-.11.07-.2.11-.25.11-.11,0-.14-.11-.14-.36.02-1.05.02-2.04.02-3.18v-6.68c0-.66-.02-1.74-.05-2.34l1.05.91h3.37l.61-.85,1.03.78ZM119.96,8.87c.64.59,1.67,1.95,1.78,2.47.02.12.04.23.04.34,0,.57-.3,1.01-.71,1.01-.25,0-.32-.09-.32-.69,0-.68-.32-2.01-.96-3.02l.18-.11Z"/>
    <path class="st1" d="M143.14,15.8c.13.09.18.18.18.25,0,.09-.09.14-.25.14h-7.58v1.4c0,.37-.73.62-.73.62-.12,0-.16-.14-.16-.46,0-.45.07-2.65.07-3.14v-7.19c-.66,1.12-1.33,2.1-2.11,3.04l-.21-.14c.44-.66.82-1.28,1.17-1.88h-1.97v7.97c0,.87-.27,1.16-1.07,1.58-.05.04-.11.04-.14.04-.09,0-.16-.05-.18-.18-.09-.5-.53-.75-2.08-1.21l.05-.27c1.06.25,1.7.35,2.08.35.5,0,.53-.19.53-.55v-6.54c-1.1,2.29-1.99,3.69-3.85,5.81l-.16-.18c1.86-2.54,2.74-4.16,3.8-6.84h-1.83l-.37.43c-.05.05-.09.07-.16.07-.03,0-.09-.02-.16-.05l-.89-.57.66-.48.37-1.85c.09-.44.18-.87.21-1.26l1.05.57c.07.04.11.07.11.11,0,.05-.05.09-.53.32l-.46,2.33h2.22V3.74h-2.24c-.37,0-.89.07-1.19.2l-.5-.66c.44.04.89.07,1.3.07h4.51l.59-.85.96.85c.11.11.16.19.16.27s-.07.12-.21.12h-2.58v4.3h.73l.55-.76.87.82c.96-1.79,1.62-3.59,2.5-6.16l1.1.55c.11.05.16.11.16.16s-.05.11-.16.16c-.37.14-.48.27-.66.69-.23.51-.44.99-.67,1.46h5.22l.71-.99,1.12.99c.12.09.18.18.18.25,0,.09-.09.14-.25.14h-3.84v3.04h1.65l.66-.91,1.03.91c.12.11.18.2.18.27s-.09.12-.25.12h-3.27v3h1.6l.66-.91,1.03.91c.13.11.18.2.18.27s-.09.12-.25.12h-3.22v3.64h2.2l.71-.99,1.12.99ZM138.27,8.37v-3.04h-2.49c-.11.2-.2.41-.3.6v2.43h2.79ZM138.27,11.77v-3h-2.79v3h2.79ZM138.27,15.8v-3.64h-2.79v3.64h2.79ZM138.04,1.86c1.47.84,1.87,1.3,1.87,1.9,0,.46-.3.69-.53.69s-.27-.09-.34-.53c-.11-.64-.41-1.19-1.12-1.92l.12-.14Z"/>
    <path class="st1" d="M144.58,6.15c1.99.57,2.63,1.42,2.63,1.92,0,.43-.35.66-.57.66s-.44-.18-.57-.53c-.16-.48-.59-1.14-1.62-1.85l.13-.2ZM149.25,4.98c-.57,2.26-1.33,5.12-1.79,6.73-.16.57-.25,1.05-.25,1.56,0,.76.18,1.62.5,3.07.05.21.07.41.07.59,0,.44-.18.73-.66.73-.39,0-.57-.23-.57-.82,0-.29.05-1.58.05-1.81,0-1.24-.14-1.67-.37-1.83-.34-.23-.84-.41-1.55-.48l.04-.23c1.51,0,1.69-.11,2.15-1.51l2.06-6.07.32.07ZM145.63,2.32c1.63.41,2.43,1.01,2.58,1.4.05.16.09.32.09.44,0,.5-.35.78-.59.78-.18,0-.28-.12-.5-.66-.21-.53-.67-1.12-1.69-1.78l.11-.2ZM160.75,2.99c.12.12.18.21.18.27,0,.07-.09.11-.27.11h-4.42v2.79h1.94l.57-.91,1.1.69c.14.09.21.14.21.21,0,.05-.05.11-.18.18l-.5.32v7.16c0,1.35.04,2.42.09,3.21v.13c0,.23-.07.28-.43.5-.18.11-.3.18-.37.18-.09,0-.12-.11-.12-.32v-1.42h-7.74v1.42c0,.32-.78.53-.78.53-.11,0-.14-.09-.14-.3,0-.07.02-.16.02-.25.05-.76.07-1.56.07-2.68v-7.25c0-.66-.02-1.72-.05-2.31l.96.91h2.01v-2.79h-2.26c-.37,0-.89.07-1.19.2l-.5-.66c.44.03.89.07,1.3.07h8.62l.82-1.05,1.08,1.07ZM158.54,13.01v-6.47h-2.31v3.36c0,.36.23.6.76.6.19,0,.44-.03.75-.12.35.25.64.62.64.75,0,.04-.04.07-.13.07-.39.02-.73.02-1.03.02-1.67,0-1.83-.21-1.83-1.14v-3.54h-1.72c0,3.04-.23,4.49-2.67,5.79l-.04-.3c1.87-1.6,1.9-2.36,1.9-5.49h-2.08v6.47h7.74ZM158.54,15.69v-2.29h-7.74v2.29h7.74ZM155.4,6.15v-2.79h-1.72v2.79h1.72Z"/>
    <path class="st1" d="M178.49,4.27c.11.11.18.18.18.23s-.09.07-.25.07h-12.99v4.41c0,4.57-.46,6.7-2.97,9.01l-.14-.16c1.95-2.79,2.29-4.01,2.29-8.72v-3.8c0-.68-.04-1.46-.05-2.06l1.23.94h10.76l.75-1.03,1.19,1.12ZM177.83,8.3c.09.09.13.16.13.2,0,.05-.05.07-.2.07h-5.68v3.25h3.32l.41-.68,1.12.68c.09.05.14.11.14.16,0,.03-.05.09-.14.16l-.48.37v2.79c0,.6.02,1.12.07,1.92v.07c0,.3-.11.37-.5.53-.18.07-.28.11-.34.11-.11,0-.13-.09-.13-.23v-1.12h-7.37v1.1c0,.21-.04.32-.34.44-.16.07-.27.11-.34.11-.13,0-.14-.11-.14-.37,0-.39.05-2.27.05-2.42v-2.65c0-.43-.02-1.28-.05-1.83l1.05.85h2.81v-4.46c0-.69-.04-1.83-.07-2.45l1.35.69c.09.05.14.09.14.12,0,.05-.04.09-.11.12l-.46.3v2.03h3.94l.73-1,1.08,1.12ZM175.56,16.19v-3.98h-7.37v3.98h7.37ZM169.82,1.7c1.33.37,2.08.91,2.22,1.33.03.09.05.19.05.28,0,.46-.39.82-.67.82-.14,0-.27-.25-.39-.67-.09-.28-.46-.91-1.3-1.6l.09-.16Z"/>
  </g>
</svg>