<?xml version="1.0" encoding="UTF-8"?>
<svg id="Layer_1" xmlns="http://www.w3.org/2000/svg" xmlns:xlink="http://www.w3.org/1999/xlink" version="1.1" viewBox="0 0 180 20">
  <!-- Generator: Adobe Illustrator 29.7.1, SVG Export Plug-In . SVG Version: 2.1.1 Build 8)  -->
  <defs>
    <style>
      .st0 {
        fill: url(#linear-gradient);
      }

      .st1 {
        fill: #231f20;
        stroke: #000;
        stroke-miterlimit: 10;
        stroke-width: .25px;
      }
    </style>
    <linearGradient id="linear-gradient" x1=".47" y1="22.55" x2="32.23" y2="-13.83" gradientTransform="translate(0 19.89) scale(1 -1)" gradientUnits="userSpaceOnUse">
      <stop offset="0" stop-color="#c9aa69"/>
      <stop offset="1" stop-color="#f0daad"/>
    </linearGradient>
  </defs>
  <path class="st0" d="M32.26,19.98s0-.02,0-.03L23.05.02s-.02-.02-.03-.02h-3.53s-.03,0-.03.02l-2.98,6.45s0,.02,0,.03l1.77,3.84s.05.03.07,0l2.95-6.38,5.96,12.9h-6.62l-2.12-4.6s0,0,0,0l-.17-.36s-.05-.03-.07,0l-2.1,4.54-2.11-4.54s-.05-.03-.07,0l-2.29,4.96h-6.62L11.01,3.96l5.09,11s.05.03.07,0l1.77-3.82s0-.02,0-.03L12.82.02S12.8,0,12.79,0h-3.54s-.03,0-.03.02L0,19.95s0,.05.03.05h13.79s.03-.01.03-.02l1.84-4,.4.88s.06.03.07,0l.4-.88.34.74s0,.01,0,.02l1.5,3.24h0s.02.03.03.03h13.77s.02,0,.03-.02h0Z"/>
  <g>
    <path class="st1" d="M52.86,12.95c.09,2.12.14,2.44.64,2.71.07.04.11.07.11.12,0,.04,0,.05-.02.09-.45,1.07-.8,1.46-2.3,1.5-1.51.04-3.28.04-4.95.04-1.37,0-2.69,0-3.78-.02-2.37-.04-2.6-.32-2.6-2.1V4.7c0-.82-.04-1.48-.05-1.98l1.28,1.02h8.95l.55-.77,1.12.87c.09.07.14.14.14.2,0,.07-.04.13-.13.18l-.57.37v3.53c0,.29.07,1.53.07,1.75,0,.25-.09.34-.45.53-.14.07-.23.11-.3.11-.11,0-.14-.09-.14-.23v-1.02h-9.64v6.18c0,1.16.23,1.16,4.78,1.16,2,0,3.92-.04,5.51-.09,1.21-.04,1.27-.21,1.51-3.56h.27ZM45.18,8.9v-4.79h-4.38v4.79h4.38ZM50.44,8.9v-4.79h-4.44v4.79h4.44Z"/>
    <path class="st1" d="M71.2,3.34c.11.11.16.2.16.25s-.09.09-.21.09h-12.55c-.11,5.42-.25,8-.45,9.04-.36,1.84-.96,3.67-2.74,5.36l-.18-.13c2.19-2.8,2.44-4.81,2.44-13.29,0-.78,0-1.59-.02-2.42l1.28,1.03h10.48l.75-1,1.03,1.07ZM71.48,16.78c.09.09.14.16.14.21,0,.07-.09.13-.21.13h-12.17c-.37,0-.89.07-1.19.2l-.5-.66c.45.04.89.07,1.3.07h5.74v-2.55h-3.31c-.37,0-.89.07-1.19.2l-.5-.66c.45.04.89.07,1.3.07h3.71v-2.37h-3.21q0,.46-.41.71c-.14.09-.25.14-.32.14-.09,0-.11-.09-.11-.21,0-.37.04-2.14.04-2.53v-3.26c0-.39-.02-1.16-.05-1.66l1.1.89h6.75l.66-.8,1.02.91c.11.11.16.18.16.23,0,.07-.05.13-.13.16l-.57.3v2.87c0,.71.02,1.44.05,2.14v.12c0,.23-.05.3-.34.48-.21.13-.34.2-.43.2-.13,0-.13-.07-.13-.7h-3.3v2.37h3.28l.68-.93,1.03,1c.09.07.13.14.13.2,0,.07-.07.13-.2.13h-4.92v2.55h4.37l.68-.96,1.05,1.02ZM64.59,8.28v-2.39h-3.21v2.39h3.21ZM64.59,11.03v-2.35h-3.21v2.35h3.21ZM68.68,8.28v-2.39h-3.3v2.39h3.3ZM68.68,11.03v-2.35h-3.3v2.35h3.3Z"/>
    <path class="st1" d="M84.35,12.75c.11.05.18.09.18.14,0,.04-.05.09-.16.14l-.43.25v1.98c0,.38.02.64.04.89,0,.18-.66.36-.77.36-.09,0-.11-.05-.11-.14v-.48h-7.32l-.39.59c-.05.07-.09.11-.12.11s-.07-.02-.13-.05l-1.14-.68.66-.57v-2.05c0-.41-.02-.71-.05-1.23l1.27.62c.12.05.18.09.18.14,0,.07-.05.11-.53.43v2.3h3.26v-2.87c0-.41-.02-.71-.05-1.23l1.34.62c.14.05.21.11.21.16s-.07.11-.2.18l-.46.27v2.87h3.49v-1.98c0-.48-.02-.78-.05-1.36l1.3.59ZM88.5,10.38c.14.09.21.14.21.21,0,.05-.07.11-.2.18l-.57.32c-.14,2.69-.37,4.85-.55,5.56-.25,1.03-.71,1.5-2.05,1.91-.05.02-.09.02-.13.02-.11,0-.14-.05-.18-.2-.14-.52-.84-.89-2.21-1.28l.04-.25c1.1.29,1.89.43,2.44.43.73,0,1.05-.25,1.21-.71.39-1.18.55-3.55.59-5.83h-9.64c-.25.3-.48.59-.57.59-.05,0-.11-.04-.18-.09l-.94-.71.64-.55v-5.2c0-.36-.04-1.39-.09-1.87l1.05.93h1.62c.46-1.03.77-1.89.89-2.41l1.16.54c.11.05.16.09.16.12,0,.05-.05.07-.18.11-.37.07-.48.14-1.67,1.64h5.24l.53-.8,1.09.82c.13.09.18.14.18.2,0,.07-.07.13-.21.21l-.46.27c-.21,3.97-.5,4.44-1.94,5.28-.07.05-.14.07-.18.07-.07,0-.11-.05-.14-.2-.14-.57-.52-.94-1.76-1.23l.05-.25c.87.18,1.44.27,1.84.27.57,0,.77-.18.93-.55.16-.37.39-1.84.39-3.69h-7.65v6.13h9.62l.5-.77,1.12.8ZM79.21,5.54c1.53.14,2.39.66,2.49,1.03.04.13.05.23.05.34,0,.36-.16.64-.37.64-.18,0-.3-.09-.52-.43-.25-.39-.77-.98-1.67-1.41l.02-.18Z"/>
    <path class="st1" d="M97.73,3.09c.05.07.09.14.09.18s-.04.05-.09.05-.36-.04-.43-.04c-.16,0-.34.02-.52.05-.57.13-1.09.25-1.64.36v3.23h1.1l.57-.82.87.86c.09.09.14.16.14.23s-.07.12-.21.12h-2.48v1.43c1.18.2,2.1.59,2.33,1.03.05.11.09.23.09.36,0,.34-.2.66-.43.66-.14,0-.25-.09-.41-.48-.14-.36-.78-.86-1.59-1.32v6.02c0,.36.02,2.07.02,2.46,0,.23-.07.34-.45.59-.14.09-.25.14-.32.14-.09,0-.12-.09-.12-.28v-.16c.07-.94.12-1.76.12-2.78v-5.79c-.91,1.8-1.89,3.44-3.06,5.04l-.21-.16c1.44-2.35,2.58-4.47,3.26-6.75h-1.32c-.37,0-.89.07-1.19.2l-.5-.66c.45.04.89.07,1.3.07h1.73v-3.08c-.78.14-1.64.3-2.67.45l-.05-.23c2.12-.55,3.71-1.09,5.44-1.82l.62.86ZM106.78,14.91c.07.05.09.11.09.14s-.04.07-.14.07c-.45.02-.86.09-1.07.21-2.58,1.57-5.54,2.89-9.32,3.17v-.2c4.47-.94,6.5-2.03,9.55-4.21l.89.8ZM100.37,9.44c.07.04.12.09.12.13s-.05.07-.14.11c-.25.07-.45.14-.59.27l-2.85,2.33-.16-.14c1.07-1.14,2.05-2.26,2.76-3.23l.86.53ZM104.93,11.31c.05.04.07.09.07.11,0,.07-.02.07-.27.07-.28,0-.55.07-.75.18-1.51.94-3.42,2.05-6.79,2.99l-.09-.2c3.37-1.44,5.49-2.73,7.02-3.89l.8.73ZM105.43,13.27s.05.07.05.09c0,.09-.04.09-.37.09-.25,0-.45.07-.57.14-2.16,1.25-3.96,2.08-7.25,2.92l-.13-.21c3.53-1.25,5.9-2.64,7.48-3.8l.78.77ZM106.53,3.56c.07.04.11.11.11.16s-.04.13-.12.18l-.5.34v2.17c0,.23.07,1.27.07,1.48,0,.25-.68.46-.73.46-.11,0-.11-.04-.11-.46h-5.9c0,.43,0,.45-.34.59-.2.09-.32.13-.37.13-.07,0-.09-.05-.09-.13,0-.46.05-1.21.05-1.68v-2.26c0-.43-.02-1.07-.05-1.62l.93.68h1.46c.27-.78.41-1.36.52-2.01l1.03.43c.14.07.21.13.21.16s-.05.07-.14.11c-.39.14-.78.5-1.3,1.32h3.74l.45-.73,1.09.69ZM105.25,5.52v-1.55h-5.9v1.55h5.9ZM105.25,7.5v-1.59h-5.9v1.59h5.9ZM102.68,8.48c.09.04.12.07.12.13,0,.04-.04.09-.11.13l-.41.21v1.34c0,.39.02.61.04.84,0,.27-.7.39-.7.39-.09,0-.11-.04-.11-.16,0-.14.02-.89.02-1.05v-1.36c0-.39,0-.64-.04-.96l1.18.5ZM103.79,8.8c1.87.57,2.66,1.05,3.01,1.39.23.23.34.46.34.7,0,.34-.23.61-.45.61-.13,0-.25-.13-.37-.32-.37-.59-1.14-1.32-2.6-2.17l.07-.2Z"/>
    <path class="st1" d="M124.99,3.15c.11.11.16.2.16.25,0,.09-.07.13-.23.13h-14.42c-.37,0-.89.07-1.19.2l-.5-.66c.45.04.89.07,1.3.07h13.04l.71-1,1.12,1.02ZM116.26,6.21c.09.07.14.14.14.2s-.05.11-.14.2l-.43.37v8.68c0,1.37-.13,1.57-1.03,2.07-.07.04-.13.05-.16.05-.07,0-.09-.05-.11-.14-.09-.66-.37-.91-1.98-1.43l.05-.23c.93.2,1.51.29,1.87.29.52,0,.59-.18.59-.5V6.57h-3.62v8.36c0,.75.02,1.82.05,2.41v.07c0,.3-.71.62-.77.62-.09,0-.12-.09-.12-.29v-.11c.04-1.02.05-2.26.05-3.48v-6.56c0-.66-.02-1.75-.05-2.35l1.09.93h3.08l.53-.78.94.82ZM112.25,8.76c.64.59,1.75,2.17,1.75,2.94,0,.55-.37.98-.71.98-.25,0-.28-.09-.28-.69,0-.68-.29-2.1-.93-3.12l.18-.11ZM123.94,6.12c.07.05.12.13.12.2s-.04.14-.12.21l-.46.41v8.86c0,1.44-.25,1.64-1.16,2.14-.07.04-.12.05-.16.05-.07,0-.11-.05-.13-.12-.23-.8-.5-1-2.08-1.41l.04-.27c1.03.2,1.67.29,2.07.29.59,0,.66-.2.66-.57V6.59h-4.01v7.75c0,1.12.02,2.07.05,2.89,0,.2-.04.29-.46.55-.11.07-.2.11-.25.11-.11,0-.14-.11-.14-.36.02-1.05.02-2.05.02-3.19v-6.7c0-.66-.02-1.75-.05-2.35l1.05.91h3.39l.61-.85,1.03.78ZM119.68,8.87c.64.59,1.68,1.96,1.78,2.48.02.13.04.23.04.34,0,.57-.3,1.02-.71,1.02-.25,0-.32-.09-.32-.7,0-.68-.32-2.01-.96-3.03l.18-.11Z"/>
    <path class="st1" d="M142.94,15.82c.12.09.18.18.18.25,0,.09-.09.14-.25.14h-7.61v1.41c0,.37-.73.62-.73.62-.12,0-.16-.14-.16-.46,0-.45.07-2.66.07-3.15v-7.22c-.66,1.12-1.34,2.1-2.12,3.05l-.21-.14c.45-.66.82-1.28,1.18-1.89h-1.98v8c0,.87-.27,1.16-1.07,1.59-.05.04-.11.04-.14.04-.09,0-.16-.05-.18-.18-.09-.5-.53-.75-2.09-1.21l.05-.27c1.07.25,1.71.36,2.08.36.5,0,.53-.2.53-.55v-6.56c-1.1,2.3-2,3.71-3.87,5.83l-.16-.18c1.87-2.55,2.74-4.17,3.81-6.86h-1.84l-.37.43c-.05.05-.09.07-.16.07-.04,0-.09-.02-.16-.05l-.89-.57.66-.48.37-1.85c.09-.45.18-.87.21-1.27l1.05.57c.07.04.11.07.11.11,0,.05-.05.09-.53.32l-.46,2.33h2.23V3.72h-2.25c-.37,0-.89.07-1.19.2l-.5-.66c.45.04.89.07,1.3.07h4.53l.59-.85.96.85c.11.11.16.2.16.27s-.07.12-.21.12h-2.58v4.31h.73l.55-.77.87.82c.96-1.8,1.62-3.6,2.51-6.18l1.1.55c.11.05.16.11.16.16s-.05.11-.16.16c-.37.14-.48.27-.66.69-.23.52-.45,1-.68,1.46h5.24l.71-1,1.12,1c.12.09.18.18.18.25,0,.09-.09.14-.25.14h-3.85v3.05h1.66l.66-.91,1.03.91c.13.11.18.2.18.27s-.09.13-.25.13h-3.28v3.01h1.6l.66-.91,1.03.91c.12.11.18.2.18.27s-.09.12-.25.12h-3.23v3.65h2.21l.71-1,1.12,1ZM138.05,8.37v-3.05h-2.49c-.11.2-.2.41-.3.61v2.44h2.8ZM138.05,11.77v-3.01h-2.8v3.01h2.8ZM138.05,15.82v-3.65h-2.8v3.65h2.8ZM137.82,1.83c1.48.84,1.87,1.3,1.87,1.91,0,.46-.3.69-.53.69s-.27-.09-.34-.53c-.11-.64-.41-1.19-1.12-1.92l.12-.14Z"/>
    <path class="st1" d="M153.48,10.63c.13.09.2.18.2.25s-.07.13-.2.2l-.48.25c-.05,1.09-.16,2.32-.36,4.01-.14,1.3-.37,1.64-1.73,2.28-.07.04-.13.05-.18.05-.11,0-.16-.07-.21-.25-.12-.48-.39-.77-1.87-1.18l.05-.29c.98.2,1.64.32,2.08.32.75,0,.91-.34,1.03-1.23.16-1.14.29-2.6.34-4.08h-3.21c-.46,3.33-1.32,5.33-4.53,7.23l-.16-.23c2.9-2.16,3.58-4.1,3.81-7h-1.52c-.48,0-.89.07-1.19.2l-.5-.61c.45.04.89.07,1.3.07h1.94c.07-.78.11-1.87.09-2.78l1.34.69c.09.04.13.07.13.13s-.34.3-.53.46c-.04.5-.07.98-.14,1.5h2.83l.59-.82,1.07.82ZM153.29,3.13c.09.07.14.12.14.18s-.05.09-.14.14l-.59.32v2.16c0,.28.11,1.69.11,1.83,0,.23-.09.3-.45.45-.18.07-.29.11-.36.11-.11,0-.12-.09-.12-.23v-.62h-4.58v.36c0,.23-.05.29-.37.45-.16.09-.27.13-.34.13-.11,0-.12-.07-.12-.23,0-.05.04-1.43.04-1.69v-2.5c0-.41-.02-1.23-.05-1.75l1.05.84h4.12l.52-.82,1.16.89ZM151.88,7.07v-3.62h-4.58v3.62h4.58ZM156.66,4.54c.16.09.25.14.25.2s-.09.11-.23.2l-.5.29v5.06c0,1.23.02,1.84.07,2.57v.11c0,.21-.05.27-.34.43-.2.11-.34.18-.43.18-.11,0-.14-.13-.14-.41v-.18c.04-.94.05-1.8.05-2.71v-4.08c0-.66-.04-1.75-.05-2.33l1.32.7ZM160.06,2.56c.14.07.21.12.21.2,0,.05-.07.13-.2.2l-.37.23v13.26c0,.8-.09,1.02-1.48,1.73-.05.04-.11.05-.16.05s-.11-.05-.13-.16c-.14-.61-.69-.96-2.32-1.35l.05-.25c1.14.16,1.87.25,2.33.25.78,0,.84-.23.84-.69V4.47c0-.73-.04-1.94-.07-2.6l1.28.7Z"/>
    <path class="st1" d="M178.32,17.07c.11.09.14.16.14.23,0,.09-.07.14-.23.14h-14.33c-.37,0-.91.07-1.19.18l-.5-.62c.43.04.89.07,1.3.07h6.49v-2.55h-3.87c-.36,0-.87.07-1.14.18l-.48-.62c.41.04.86.07,1.25.07h4.24v-.64c0-.69-.02-1.12-.05-1.75l1.28.52c.13.05.2.11.2.16q0,.07-.61.39v1.32h3.94l.75-.91.94.91c.11.11.18.2.18.25,0,.07-.09.12-.27.12h-5.54v2.55h5.7l.71-.98,1.09.98ZM171.2,3.11c.12.09.18.13.18.2,0,.05-.05.11-.16.2l-.37.34v1.85c0,.71.02,1.21.05,1.66v.14c0,.25-.09.32-.37.45-.16.07-.27.11-.34.11-.13,0-.13-.05-.13-.52h-2.19v1.75h1.75l.66-.84.84.84c.11.11.16.2.16.27s-.07.11-.23.11h-3.17v1.62l3.28-.29.04.27-5.03.71c-1.51.21-2.19.41-2.44.61-.07.05-.12.07-.18.07s-.11-.04-.16-.13l-.5-.82,4.22-.36v-1.69h-2.16c-.37,0-.89.07-1.19.2l-.5-.64c.45.04.89.07,1.3.07h2.55v-1.75h-2.16c0,.48,0,.54-.32.71-.18.09-.3.14-.37.14-.11,0-.13-.09-.13-.29,0-.27.04-1.62.04-1.92v-2.21c0-.39-.02-1.16-.05-1.66l1.14.84h4.53l.37-.73,1.05.69ZM167.1,5.2v-1.68h-2.16v1.68h2.16ZM167.1,7.16v-1.59h-2.16v1.59h2.16ZM170.06,5.2v-1.68h-2.19v1.68h2.19ZM170.06,7.16v-1.59h-2.19v1.59h2.19ZM178.49,7.25c.12.09.18.16.18.21s-.05.09-.16.11c-.53.09-1.35.59-2.21,1.78l-.21-.14.98-1.84h-2.12v3.9c0,.84-.12.98-1.09,1.41-.02,0-.04.02-.05.02-.11,0-.2-.07-.25-.23-.18-.46-.43-.61-1.57-.98l.04-.21c.78.14,1.28.21,1.6.21.5,0,.55-.18.55-.55v-3.56h-1.34c-.37,0-.89.07-1.19.2l-.5-.64c.45.04.89.07,1.3.07h4.51l.52-.59,1.02.84ZM177.77,3.56c.09.09.14.14.14.2s-.07.09-.2.11c-.64.11-1,.29-2.67,1.82.11.16.16.34.16.52,0,.37-.2.73-.41.73-.2,0-.28-.13-.37-.39-.23-.68-.59-1.16-1.48-1.94l.12-.2c1.05.52,1.41.71,1.78,1.09l1.43-1.75h-2.89c-.37,0-.87.05-1.18.18l-.52-.62c.45.04.89.07,1.3.07h3.32l.55-.59.91.78Z"/>
  </g>
</svg>