<?xml version="1.0" encoding="UTF-8"?>
<svg id="Layer_1" xmlns="http://www.w3.org/2000/svg" xmlns:xlink="http://www.w3.org/1999/xlink" version="1.1" viewBox="0 0 184 20">
  <!-- Generator: Adobe Illustrator 29.7.1, SVG Export Plug-In . SVG Version: 2.1.1 Build 8)  -->
  <defs>
    <style>
      .st0 {
        fill: url(#linear-gradient);
      }

      .st1 {
        fill: #231f20;
        stroke: #000;
        stroke-miterlimit: 10;
        stroke-width: .25px;
      }
    </style>
    <linearGradient id="linear-gradient" x1=".48" y1="22.55" x2="32.23" y2="-13.83" gradientTransform="translate(0 19.89) scale(1 -1)" gradientUnits="userSpaceOnUse">
      <stop offset="0" stop-color="#c9aa69"/>
      <stop offset="1" stop-color="#f0daad"/>
    </linearGradient>
  </defs>
  <path class="st0" d="M32.26,19.98s0-.02,0-.03L23.05.02s-.02-.02-.03-.02h-3.53s-.03,0-.03.02l-2.98,6.45s0,.02,0,.03l1.77,3.84s.05.03.07,0l2.95-6.38,5.96,12.9h-6.62l-2.12-4.6s0,0,0,0l-.17-.36s-.05-.03-.07,0l-2.1,4.54-2.11-4.54s-.05-.03-.07,0l-2.29,4.96h-6.62L11.01,3.96l5.09,11s.05.03.07,0l1.77-3.82s0-.02,0-.03L12.82.02S12.8,0,12.79,0h-3.54s-.03,0-.03.02L0,19.95s0,.05.03.05h13.79s.03-.01.03-.02l1.84-4,.4.88s.06.03.07,0l.4-.88.34.74s0,.01,0,.02l1.5,3.24h0s.02.03.03.03h13.78s.02,0,.03-.02Z"/>
  <g>
    <path class="st1" d="M52.31,12.7c.08,1.95.13,2.24.59,2.48.07.03.1.07.1.11,0,.03,0,.05-.02.08-.41.98-.74,1.34-2.11,1.37-1.39.03-3.01.03-4.54.03-1.26,0-2.47,0-3.46-.02-2.17-.03-2.39-.29-2.39-1.93V5.14c0-.75-.03-1.36-.05-1.81l1.18.93h8.2l.51-.7,1.03.8c.08.07.13.13.13.18,0,.07-.03.11-.11.16l-.52.34v3.24c0,.26.07,1.41.07,1.6,0,.23-.08.31-.41.49-.13.07-.21.1-.28.1-.1,0-.13-.08-.13-.21v-.93h-8.84v5.67c0,1.06.21,1.06,4.38,1.06,1.83,0,3.6-.03,5.05-.08,1.11-.03,1.16-.2,1.39-3.27h.24ZM45.26,9v-4.4h-4.02v4.4h4.02ZM50.08,9v-4.4h-4.07v4.4h4.07Z"/>
    <path class="st1" d="M69.12,3.9c.1.1.15.18.15.23s-.08.08-.2.08h-11.51c-.1,4.97-.23,7.34-.41,8.29-.33,1.68-.88,3.37-2.52,4.92l-.16-.11c2.01-2.57,2.24-4.41,2.24-12.19,0-.72,0-1.45-.02-2.22l1.18.95h9.61l.69-.92.95.98ZM69.38,16.22c.08.08.13.15.13.2,0,.07-.08.11-.2.11h-11.16c-.34,0-.82.07-1.1.18l-.46-.6c.41.03.82.07,1.19.07h5.26v-2.34h-3.04c-.34,0-.82.07-1.1.18l-.46-.6c.41.03.82.07,1.19.07h3.4v-2.17h-2.94q0,.43-.38.65c-.13.08-.23.13-.29.13-.08,0-.1-.08-.1-.2,0-.34.03-1.96.03-2.32v-2.99c0-.36-.02-1.06-.05-1.52l1.01.82h6.19l.6-.74.93.83c.1.1.15.16.15.21,0,.07-.05.11-.11.15l-.52.28v2.63c0,.65.02,1.32.05,1.96v.11c0,.21-.05.28-.31.44-.2.11-.31.18-.39.18-.11,0-.11-.07-.11-.64h-3.02v2.17h3.01l.62-.85.95.92c.08.07.11.13.11.18,0,.07-.07.11-.18.11h-4.51v2.34h4l.62-.88.96.93ZM63.06,8.42v-2.19h-2.94v2.19h2.94ZM63.06,10.94v-2.16h-2.94v2.16h2.94ZM66.82,8.42v-2.19h-3.02v2.19h3.02ZM66.82,10.94v-2.16h-3.02v2.16h3.02Z"/>
    <path class="st1" d="M81.18,12.53c.1.05.16.08.16.13,0,.03-.05.08-.15.13l-.39.23v1.81c0,.34.02.59.03.82,0,.16-.6.33-.7.33-.08,0-.1-.05-.1-.13v-.44h-6.72l-.36.54c-.05.07-.08.1-.11.1s-.07-.02-.11-.05l-1.05-.62.6-.52v-1.88c0-.38-.02-.65-.05-1.13l1.16.57c.11.05.16.08.16.13,0,.07-.05.1-.49.39v2.11h2.99v-2.63c0-.38-.02-.65-.05-1.13l1.23.57c.13.05.2.1.2.15s-.07.1-.18.16l-.43.24v2.63h3.2v-1.81c0-.44-.02-.72-.05-1.24l1.19.54ZM84.99,10.35c.13.08.2.13.2.2,0,.05-.07.1-.18.16l-.52.29c-.13,2.47-.34,4.45-.51,5.1-.23.95-.65,1.37-1.88,1.75-.05.02-.08.02-.11.02-.1,0-.13-.05-.16-.18-.13-.47-.77-.82-2.03-1.18l.03-.23c1.01.26,1.73.39,2.24.39.67,0,.96-.23,1.11-.65.36-1.08.51-3.25.54-5.34h-8.84c-.23.28-.44.54-.52.54-.05,0-.1-.03-.16-.08l-.87-.65.59-.51v-4.77c0-.33-.03-1.27-.08-1.72l.96.85h1.49c.43-.95.7-1.73.82-2.21l1.06.49c.1.05.15.08.15.11,0,.05-.05.07-.16.1-.34.07-.44.13-1.54,1.5h4.81l.49-.73,1,.75c.11.08.16.13.16.18,0,.07-.07.11-.2.2l-.43.24c-.2,3.64-.46,4.07-1.78,4.84-.07.05-.13.07-.16.07-.07,0-.1-.05-.13-.18-.13-.52-.47-.87-1.62-1.13l.05-.23c.8.16,1.32.25,1.68.25.52,0,.7-.16.85-.51.15-.34.36-1.68.36-3.38h-7.01v5.62h8.83l.46-.7,1.03.74ZM76.47,5.91c1.41.13,2.19.61,2.29.95.03.11.05.21.05.31,0,.33-.15.59-.34.59-.16,0-.28-.08-.47-.39-.23-.36-.7-.9-1.54-1.29l.02-.16Z"/>
    <path class="st1" d="M93.45,3.67c.05.07.08.13.08.16s-.03.05-.08.05-.33-.03-.39-.03c-.15,0-.31.02-.47.05-.52.11-1,.23-1.5.33v2.96h1.01l.52-.75.8.79c.08.08.13.15.13.21s-.07.11-.2.11h-2.27v1.31c1.08.18,1.93.54,2.14.95.05.1.08.21.08.33,0,.31-.18.6-.39.6-.13,0-.23-.08-.38-.44-.13-.33-.72-.78-1.45-1.21v5.52c0,.33.02,1.9.02,2.26,0,.21-.07.31-.41.54-.13.08-.23.13-.29.13-.08,0-.11-.08-.11-.26v-.15c.07-.87.11-1.62.11-2.55v-5.31c-.83,1.65-1.73,3.15-2.81,4.63l-.2-.15c1.32-2.16,2.37-4.1,2.99-6.19h-1.21c-.34,0-.82.07-1.09.18l-.46-.61c.41.03.82.07,1.19.07h1.59v-2.83c-.72.13-1.5.28-2.45.41l-.05-.21c1.94-.51,3.4-1,4.98-1.67l.57.79ZM101.75,14.5c.07.05.08.1.08.13s-.03.07-.13.07c-.41.02-.78.08-.98.2-2.37,1.44-5.08,2.65-8.55,2.91v-.18c4.1-.87,5.97-1.86,8.76-3.86l.82.73ZM95.87,9.49c.07.03.11.08.11.11s-.05.07-.13.1c-.23.07-.41.13-.54.24l-2.61,2.14-.15-.13c.98-1.05,1.88-2.07,2.53-2.96l.78.49ZM100.05,11.2s.07.08.07.1c0,.07-.02.07-.24.07-.26,0-.51.07-.69.16-1.39.87-3.14,1.88-6.23,2.75l-.08-.18c3.09-1.32,5.03-2.5,6.44-3.56l.74.67ZM100.51,13s.05.07.05.08c0,.08-.03.08-.34.08-.23,0-.41.07-.52.13-1.98,1.14-3.63,1.91-6.65,2.68l-.11-.2c3.24-1.14,5.41-2.42,6.86-3.48l.72.7ZM101.53,4.09c.07.03.1.1.1.15s-.03.11-.11.16l-.46.31v1.99c0,.21.07,1.16.07,1.36,0,.23-.62.42-.67.42-.1,0-.1-.03-.1-.42h-5.41c0,.39,0,.41-.31.54-.18.08-.29.11-.34.11-.07,0-.08-.05-.08-.11,0-.42.05-1.11.05-1.54v-2.07c0-.39-.02-.98-.05-1.49l.85.62h1.34c.24-.72.38-1.24.47-1.85l.95.39c.13.07.2.11.2.15s-.05.07-.13.1c-.36.13-.72.46-1.19,1.21h3.43l.41-.67,1,.64ZM100.35,5.89v-1.42h-5.41v1.42h5.41ZM100.35,7.7v-1.45h-5.41v1.45h5.41ZM98,8.6c.08.03.11.07.11.11,0,.03-.03.08-.1.11l-.38.2v1.23c0,.36.02.56.03.77,0,.25-.64.36-.64.36-.08,0-.1-.03-.1-.15,0-.13.02-.82.02-.96v-1.24c0-.36,0-.59-.03-.88l1.08.46ZM99.01,8.9c1.72.52,2.44.96,2.76,1.27.21.21.31.42.31.64,0,.31-.21.56-.41.56-.11,0-.23-.11-.34-.29-.34-.54-1.05-1.21-2.39-1.99l.07-.18Z"/>
    <path class="st1" d="M118.46,3.72c.1.1.15.18.15.23,0,.08-.07.11-.21.11h-13.22c-.34,0-.82.07-1.1.18l-.46-.61c.41.03.82.07,1.19.07h11.96l.65-.91,1.03.93ZM110.45,6.53c.08.07.13.13.13.18s-.05.1-.13.18l-.39.34v7.96c0,1.26-.11,1.44-.95,1.9-.07.03-.11.05-.15.05-.07,0-.08-.05-.1-.13-.08-.6-.34-.83-1.81-1.31l.05-.21c.85.18,1.39.26,1.72.26.47,0,.54-.16.54-.46V6.85h-3.32v7.67c0,.69.02,1.67.05,2.21v.07c0,.28-.65.57-.7.57-.08,0-.11-.08-.11-.26v-.1c.03-.93.05-2.07.05-3.19v-6.01c0-.6-.02-1.6-.05-2.16l1,.85h2.83l.49-.72.87.75ZM106.77,8.86c.59.54,1.6,1.99,1.6,2.7,0,.51-.34.9-.65.9-.23,0-.26-.08-.26-.64,0-.62-.26-1.93-.85-2.86l.16-.1ZM117.49,6.45c.07.05.11.11.11.18s-.03.13-.11.2l-.43.38v8.12c0,1.32-.23,1.5-1.06,1.96-.07.03-.11.05-.15.05-.07,0-.1-.05-.11-.11-.21-.74-.46-.92-1.91-1.29l.03-.24c.95.18,1.54.26,1.9.26.54,0,.6-.18.6-.52V6.87h-3.68v7.11c0,1.03.02,1.9.05,2.65,0,.18-.03.26-.43.51-.1.07-.18.1-.23.1-.1,0-.13-.1-.13-.33.02-.96.02-1.88.02-2.93v-6.14c0-.61-.02-1.6-.05-2.16l.96.83h3.11l.56-.78.95.72ZM113.58,8.96c.59.54,1.54,1.8,1.63,2.27.02.11.03.21.03.31,0,.52-.28.93-.65.93-.23,0-.29-.08-.29-.64,0-.62-.29-1.85-.88-2.78l.16-.1Z"/>
    <path class="st1" d="M134.91,15.34c.11.08.16.16.16.23,0,.08-.08.13-.23.13h-6.98v1.29c0,.34-.67.57-.67.57-.11,0-.15-.13-.15-.42,0-.41.07-2.44.07-2.89v-6.62c-.6,1.03-1.23,1.93-1.94,2.79l-.2-.13c.41-.61.75-1.18,1.08-1.73h-1.81v7.34c0,.8-.25,1.06-.98,1.45-.05.03-.1.03-.13.03-.08,0-.15-.05-.16-.16-.08-.46-.49-.69-1.91-1.11l.05-.24c.98.23,1.57.33,1.91.33.46,0,.49-.18.49-.51v-6.01c-1.01,2.11-1.83,3.4-3.55,5.34l-.15-.16c1.72-2.34,2.52-3.82,3.5-6.29h-1.68l-.34.39s-.08.07-.15.07c-.03,0-.08-.02-.15-.05l-.82-.52.6-.44.34-1.7c.08-.41.16-.8.2-1.16l.96.52c.07.03.1.07.1.1,0,.05-.05.08-.49.29l-.43,2.14h2.04v-3.96h-2.06c-.34,0-.82.07-1.09.18l-.46-.61c.41.03.82.07,1.19.07h4.15l.54-.79.88.79c.1.1.15.18.15.24s-.07.11-.2.11h-2.37v3.96h.67l.51-.7.8.75c.88-1.65,1.49-3.3,2.3-5.67l1.01.51c.1.05.15.1.15.15s-.05.1-.15.15c-.34.13-.44.24-.6.64-.21.47-.41.92-.62,1.34h4.8l.65-.92,1.03.92c.11.08.16.16.16.23,0,.08-.08.13-.23.13h-3.53v2.79h1.52l.6-.83.95.83c.11.1.16.18.16.24s-.08.11-.23.11h-3.01v2.76h1.47l.6-.83.95.83c.11.1.16.18.16.24s-.08.11-.23.11h-2.96v3.35h2.03l.65-.92,1.03.92ZM130.43,8.5v-2.79h-2.29c-.1.18-.18.38-.28.56v2.24h2.57ZM130.43,11.63v-2.76h-2.57v2.76h2.57ZM130.43,15.34v-3.35h-2.57v3.35h2.57ZM130.22,2.51c1.36.77,1.72,1.19,1.72,1.75,0,.42-.28.64-.49.64s-.25-.08-.31-.49c-.1-.59-.38-1.1-1.03-1.77l.11-.13Z"/>
    <path class="st1" d="M150.94,4.7c.07.07.11.13.11.16,0,.05-.07.07-.18.07h-11.87v3.61c0,4-.43,7.26-2.83,9.09l-.13-.15c1.72-2.24,2.21-3.76,2.21-8.83v-2.98c0-.62-.03-1.36-.05-1.91l1.1.8h9.86l.72-.96,1.06,1.1ZM151.5,16.66c-.8,0-1.31.36-1.47.75-.03.05-.07.07-.13.07-.13,0-3.58-.77-5.2-1.8-1.75,1.34-4.09,1.85-6.9,2.11v-.24c2.71-.44,4.87-1.24,6.34-2.29-1.08-.93-1.68-2.03-2.06-3.15h-.57c-.28,0-.57.05-.85.18l-.46-.6c.41.03.82.07,1.19.07h5.33l.52-.61.95.74c.07.05.08.08.08.11s-.03.07-.13.1c-.18.05-.47.24-.6.44-.8,1.21-1.41,1.91-2.27,2.7,1.41.72,3.38,1.14,6.23,1.18v.26ZM150.97,7.46c.08.07.13.11.13.15,0,.05-.07.07-.16.07h-3.71v1.06c0,.24.03,1.55.03,1.55,0,.18-.05.23-.36.34-.15.05-.26.08-.33.08-.11,0-.11-.05-.11-.49h-3.48c0,.36,0,.41-.33.54-.16.07-.26.11-.33.11-.1,0-.11-.07-.11-.21,0-.2.02-1.18.02-1.39v-1.6h-1.05c-.34,0-.82.07-1.09.18l-.46-.59c.41.03.82.07,1.19.07h1.41v-.67c0-.59-.02-1.05-.05-1.5l1.19.56s.08.07.08.1-.03.08-.08.11l-.39.29v1.11h3.48v-.64c0-.59,0-1.1-.05-1.59l1.13.51c.08.05.13.08.13.11,0,.07-.05.1-.44.39v1.21h1.99l.62-.82,1.13.95ZM142.43,12.1c.46,1.1,1.16,2.04,2.21,2.76,1.11-.93,1.72-1.72,2.16-2.76h-4.36ZM146.46,9.86v-2.19h-3.48v2.19h3.48ZM143.06,2.43c.78.1,1.52.34,1.88.67.13.13.2.33.2.54,0,.36-.18.74-.46.74-.18,0-.33-.23-.46-.59-.11-.31-.67-.9-1.23-1.21l.07-.15Z"/>
    <path class="st1" d="M157.05,3c.1.07.15.1.15.15s-.05.1-.16.15c-.29.15-.33.18-.52.69-.46,1.16-.88,2.17-1.32,3.11l.54.23c.1.05.15.08.15.13s-.05.1-.44.47v6.41c0,1.21.03,2.16.07,2.58v.13c0,.21-.05.28-.39.42-.15.07-.26.1-.34.1-.11,0-.15-.1-.15-.38v-.15c.03-.96.05-1.9.05-2.75v-6.11c-.64,1.19-1.29,2.24-2.12,3.24l-.18-.13c1.99-3.3,2.97-6.19,3.64-8.89l1.05.6ZM161.87,3.73c.08.05.11.1.11.15,0,.03-.03.08-.1.13l-.39.31v1.9c0,.77.02,1.11.05,1.47,0,.07.02.11.02.15,0,.29-.6.46-.72.46-.08,0-.1-.07-.1-.18v-.69h-2.44v2.29h1.68l.44-.7.87.83c.07.07.1.11.1.15,0,.05-.05.08-.16.08h-2.93v2.66h2.04l.47-.72.87.85c.08.08.11.13.11.16,0,.05-.05.07-.15.07h-3.35v3.86c0,.2-.07.29-.34.41-.15.07-.25.1-.33.1-.11,0-.13-.1-.13-.34v-.18c.03-.96.05-2.34.05-3.37V5.11c0-.67-.03-1.5-.07-2.11l1.01.77h1.94l.47-.67.95.64ZM160.75,7.07v-2.94h-2.44v2.94h2.44ZM167.92,16.5c-.87,0-1.24.1-1.52.36-.03.03-.07.05-.1.05-.16,0-1.63-1.1-2.4-2.03-1.1,1.29-2.79,2.21-4.81,2.91l-.05-.23c1.91-.9,3.27-1.72,4.46-3.24-.74-1.16-1.08-2.47-1.29-4.09-.07.02-.1.03-.15.05l-.46-.61c.41.03.82.07,1.19.07h2.19l.52-.67.93.74c.07.05.1.08.1.11,0,.05-.05.08-.13.13-.39.2-.51.38-.6.72-.44,1.54-.87,2.63-1.47,3.51.82.93,1.99,1.67,3.58,2.03v.18ZM166.61,3.78c.08.07.13.11.13.16s-.05.1-.13.15l-.44.29v1.88c0,.73.02,1.14.05,1.5v.08c0,.2-.07.26-.38.39-.16.07-.26.1-.33.1-.1,0-.11-.07-.11-.16v-.67h-1.73c-.34,0-.82.07-1.1.18l-.46-.6c.41.05.82.07,1.19.07h2.09v-2.99h-1.49c-.34,0-.82.07-1.09.18l-.46-.6c.41.03.82.07,1.19.07h1.54l.56-.75.96.74ZM163.16,10.11c-.2,0-.42.02-.65.07.28,1.34.7,2.55,1.41,3.56.51-.83.95-2.04,1.23-3.63h-1.98Z"/>
    <path class="st1" d="M175.35,6.36c.08.08.13.16.13.2,0,.07-.07.08-.18.08h-2.29v2.11c1.78.72,2.34,1.27,2.34,1.86,0,.43-.23.77-.44.77-.16,0-.33-.26-.41-.54-.13-.39-.67-1.13-1.49-1.75v4.59c0,1.24,0,2.6.03,3.2v.13c0,.21-.05.28-.39.42-.15.07-.26.1-.34.1-.1,0-.13-.08-.13-.29v-.23c.05-.95.08-2.44.08-3.37v-5.28c-.72,1.96-1.7,4.09-3.25,6.13l-.21-.13c1.63-2.73,2.63-5.1,3.29-7.73h-1.37c-.34,0-.82.07-1.1.18l-.46-.6c.41.03.82.07,1.19.07h1.91v-1.72c0-.67-.03-1.55-.07-2.16l1.18.59c.13.07.18.11.18.16q0,.07-.54.41v2.71h.82l.67-.9.85.98ZM183.8,6.61c.13.13.2.21.2.28s-.08.08-.26.08h-2.68v9.2c0,.51-.18.85-1.27,1.41-.07.03-.1.05-.13.05-.05,0-.07-.05-.08-.13-.11-.59-.26-.77-1.93-1.31l.05-.24c1.19.29,1.85.42,2.21.42s.41-.13.41-.36V6.97h-3.12c-.34,0-.82.07-1.1.18l-.46-.61c.41.03.82.07,1.19.07h3.48v-1.91c0-.67-.03-1.52-.07-2.13l1.16.57c.11.07.16.11.16.16s-.05.1-.51.46v2.84h1.11l.72-.96.91.96ZM176.29,8.72c1.47.92,2.12,1.83,2.19,2.22.02.1.02.18.02.28,0,.52-.28.85-.52.85-.21,0-.34-.2-.41-.6-.1-.57-.57-1.62-1.44-2.57l.16-.18Z"/>
  </g>
  <g>
    <path d="M117.13,52.29h2.44c1.21,0,2.2.3,2.97.91.76.6,1.14,1.38,1.14,2.32,0,.75-.25,1.42-.74,2-.5.58-1.26.98-2.31,1.22l3.27,4.82h-1.76l-3.12-4.63h-.34v4.63h-1.54v-11.26h0ZM118.66,53.65v3.92c2.27.05,3.4-.61,3.4-1.97,0-.48-.13-.87-.4-1.17-.26-.3-.62-.51-1.06-.62-.44-.11-1.09-.16-1.94-.16Z"/>
    <path d="M128.99,52.31h6.24v1.54h-4.72v2.81h4.72v1.52h-4.72v3.87h4.72v1.52h-6.24v-11.26h0Z"/>
    <path d="M147.6,53.55l-1.25,1c-.33-.34-.63-.6-.9-.76-.27-.17-.65-.25-1.16-.25-.55,0-1,.13-1.34.37-.34.25-.51.57-.51.96,0,.34.15.64.45.9.3.26.81.55,1.54.86.72.31,1.29.6,1.69.87.4.27.73.56.99.89.26.32.45.67.58,1.02.13.36.19.74.19,1.14,0,.94-.34,1.73-1.02,2.39-.68.66-1.5.99-2.47.99s-1.77-.26-2.5-.77c-.72-.52-1.28-1.29-1.67-2.32l1.54-.43c.56,1.27,1.42,1.9,2.57,1.9.56,0,1.02-.17,1.4-.5.37-.34.56-.76.56-1.27,0-.31-.1-.61-.29-.92-.2-.31-.44-.56-.73-.76-.29-.2-.75-.43-1.38-.69-.63-.26-1.12-.5-1.46-.71-.34-.21-.63-.47-.88-.77-.25-.3-.43-.59-.54-.89-.12-.29-.17-.61-.17-.95,0-.81.32-1.49.97-2.06.65-.57,1.43-.85,2.36-.85.61,0,1.23.13,1.86.4.63.26,1.15.67,1.57,1.21h0Z"/>
    <path d="M152.97,58.38c0-1.62.61-3.02,1.84-4.18,1.23-1.16,2.7-1.74,4.42-1.74s3.12.58,4.34,1.75c1.21,1.17,1.82,2.56,1.82,4.16,0,1.7-.6,3.14-1.8,4.31-1.2,1.17-2.67,1.76-4.41,1.76s-3.18-.59-4.39-1.77c-1.21-1.18-1.81-2.62-1.81-4.3h0ZM163.75,58.45c0-1.24-.45-2.29-1.34-3.14-.9-.85-2-1.28-3.3-1.28s-2.31.43-3.19,1.3c-.89.86-1.33,1.9-1.33,3.12s.45,2.27,1.36,3.12c.91.85,2.02,1.28,3.35,1.28,1.21,0,2.26-.43,3.14-1.3.88-.87,1.32-1.9,1.32-3.09Z"/>
    <path d="M170.49,53.2h2.44c1.21,0,2.2.3,2.96.91.76.6,1.15,1.38,1.15,2.32,0,.75-.25,1.42-.74,2-.49.58-1.26.98-2.31,1.22l3.27,4.82h-1.76l-3.12-4.63h-.34v4.63h-1.54v-11.26h0ZM172.03,54.56v3.92c2.27.05,3.4-.61,3.4-1.97,0-.48-.13-.87-.4-1.17-.26-.3-.62-.51-1.06-.62-.44-.11-1.09-.16-1.95-.16Z"/>
    <path d="M182.37,53.2h6.88v1.54h-2.69v9.72h-1.52v-9.72h-2.68v-1.54h0Z"/>
    <path d="M56.09,52.1l3.09,11.76h-1.51l-1.87-7.18-3.22,7.62-3.23-7.68-1.89,7.25h-1.5l3.09-11.76,3.53,8.41,3.51-8.41h0Z"/>
    <path d="M64.27,52.65h1.54v6.94c0,1.03.25,1.82.74,2.38.49.56,1.19.84,2.1.84s1.6-.26,2.1-.78c.5-.52.75-1.24.75-2.18v-7.2h1.54v7.1c0,1.38-.39,2.49-1.18,3.31s-1.84,1.24-3.15,1.24-2.41-.42-3.22-1.26c-.81-.84-1.21-2.08-1.21-3.71v-6.68h0Z"/>
    <path d="M78.13,53.01h1.52v9.76h3.68v1.52h-5.2v-11.29h0Z"/>
    <path d="M88.43,53.01h1.52v11.29h-1.52v-11.29Z"/>
    <path d="M100.33,52.57l5.33,11.72h-1.62l-1.31-2.89h-4.79l-1.3,2.89h-1.6l5.28-11.72ZM100.33,56.1l-1.81,4.03h3.63l-1.83-4.03Z"/>
  </g>
</svg>